<svg width="32" height="32" viewBox="0 0 32 32" fill="none" xmlns="http://www.w3.org/2000/svg">
<path fill-rule="evenodd" clip-rule="evenodd" d="M3.17579 30.332C2.63446 30.4373 2.10913 30.084 2.00246 29.5427C1.89713 29.0013 2.25046 28.4747 2.79179 28.3693C2.79179 28.3693 12.5358 26.424 19.4731 15.4813C19.7678 15.016 20.3865 14.8773 20.8531 15.1733C21.3185 15.468 21.4571 16.0867 21.1625 16.5533C13.7051 28.3147 3.17579 30.332 3.17579 30.332Z" fill="white"/>
<path fill-rule="evenodd" clip-rule="evenodd" d="M12.7547 12.2307C13.004 12.7227 12.808 13.3253 12.316 13.576C11.824 13.8253 11.2213 13.6293 10.9707 13.1373C10.3773 11.968 9.83333 10.7307 9.36666 9.432C9.18 8.912 9.45066 8.34 9.97066 8.15333C10.4893 7.96666 11.0627 8.23733 11.2493 8.756C11.6867 9.97466 12.1973 11.1347 12.7547 12.2307Z" fill="white"/>
<path fill-rule="evenodd" clip-rule="evenodd" d="M29.2837 5.096C29.2837 5.096 30.517 9.75067 29.7797 14.9467C29.277 18.4907 27.8597 22.2707 24.5984 25.0573C21.1757 27.9827 15.6717 29.848 6.88904 29.0133C6.40371 28.9667 6.02104 28.576 5.98637 28.0893C5.98637 28.0893 5.21171 17.1787 12.9557 10.1267C16.257 7.11867 21.1077 4.79067 28.2557 4.352C28.7317 4.32267 29.1624 4.63467 29.2837 5.096ZM27.5277 6.412C21.4224 6.936 17.2037 8.96267 14.3024 11.6053C8.49971 16.8893 7.96771 24.5613 7.96104 27.0973C15.4824 27.668 20.2864 26.112 23.2997 23.5373C26.1544 21.0973 27.3584 17.7693 27.7997 14.6653C28.301 11.1333 27.8157 7.872 27.5277 6.412Z" fill="white"/>
<path fill-rule="evenodd" clip-rule="evenodd" d="M17.3172 8.06666C17.6572 8.50133 17.5812 9.12933 17.1478 9.47066C16.7132 9.812 16.0838 9.736 15.7438 9.30133C14.0252 7.112 11.3758 5.16133 7.37317 3.86133C6.9625 4.82533 6.29583 6.62533 5.98783 8.752C5.5425 11.832 5.84383 15.6333 8.9865 18.464C9.39717 18.8333 9.42917 19.4653 9.05983 19.876C8.6905 20.2867 8.0585 20.3187 7.64783 19.9493C3.92383 16.5947 3.48117 12.1173 4.00917 8.46533C4.52117 4.92 5.9425 2.18933 5.9425 2.18933C6.16117 1.76533 6.64917 1.556 7.10783 1.68933C12.0798 3.128 15.2758 5.46533 17.3172 8.06666Z" fill="white"/>
</svg>
