<svg width="44" height="43" viewBox="0 0 44 43" fill="none" xmlns="http://www.w3.org/2000/svg">
<g clip-path="url(#clip0_6_13004)">
<path fill-rule="evenodd" clip-rule="evenodd" d="M22.7871 4.28256C22.844 4.28256 22.9199 4.28256 22.9768 4.28256C23.0337 4.28256 23.1096 4.28256 23.1666 4.28256C23.2235 4.28256 23.2804 4.28256 23.3563 4.28256C23.4132 4.28256 23.4701 4.28256 23.546 4.28256C23.603 4.28256 23.6599 4.28256 23.7358 4.28256C23.7927 4.28256 23.8496 4.28256 23.9255 4.30194C24.8742 4.36007 25.8039 4.49572 26.6957 4.6895C26.5818 4.67012 26.468 4.65075 26.3352 4.63137H26.3162C26.2782 4.63137 26.2213 4.61199 26.1834 4.61199H26.1644H26.1265H26.0695H26.0506H26.0316L25.9367 4.59261H25.9177H25.8988H25.8798H25.8608H25.8419H25.8229H25.8039H25.7849H25.766H25.747H25.728H25.6901H25.6711H25.6521H25.6331H25.6142H25.5952H25.5762H25.5572H25.5383H25.5193H25.5003L25.4244 4.57323L25.3296 4.55386H25.3106H25.2916H25.2726H25.2537L25.1967 4.53448H25.1398C24.6275 4.47634 24.1152 4.43759 23.565 4.41821C23.0337 4.39883 22.5025 4.39883 21.9712 4.41821H21.9333H21.8953H21.7815C21.7056 4.41821 21.6297 4.41821 21.5538 4.43759H21.5348C21.4779 4.43759 21.402 4.43759 21.3451 4.45697H21.2312C21.1174 4.45697 21.0036 4.47634 20.9087 4.47634C20.8707 4.47634 20.8328 4.47634 20.7949 4.47634C20.7569 4.47634 20.719 4.47634 20.681 4.49572H20.662H20.5672H20.4723C20.7 4.47634 20.9087 4.43759 21.1364 4.41821C21.1743 4.41821 21.2312 4.41821 21.2692 4.39883H21.3261C21.3641 4.39883 21.402 4.39883 21.44 4.39883H21.4969C21.5348 4.39883 21.5728 4.39883 21.6107 4.39883H21.6866C21.7246 4.39883 21.7435 4.39883 21.7815 4.39883H21.8574C21.8953 4.39883 21.9143 4.39883 21.9522 4.39883C21.9902 4.39883 22.0092 4.39883 22.0471 4.39883C22.0851 4.39883 22.104 4.39883 22.142 4.39883C22.161 4.39883 22.1989 4.39883 22.2179 4.39883C22.2558 4.39883 22.2748 4.39883 22.3127 4.39883C22.3507 4.39883 22.3886 4.39883 22.4266 4.39883H22.5025C22.5594 4.39883 22.5974 4.39883 22.6543 4.39883H22.6922C22.6732 4.28256 22.7302 4.28256 22.7871 4.28256ZM35.2908 12.6345L36.2774 13.5647L36.2964 13.9522H38.023C37.5296 13.429 37.0174 12.9446 36.4671 12.4795L36.9984 12.402C37.5486 13.0608 38.0799 13.7778 38.5353 14.5336C39.2183 15.6381 39.8065 16.8396 40.2429 18.0991L40.85 18.913C40.9449 19.3006 41.0208 19.7075 41.0777 20.1145H41.0588C41.0967 20.4051 41.1536 20.6958 41.1726 20.9865H41.1916C41.2105 21.1803 41.2295 21.3547 41.2485 21.5484C41.1916 21.5484 41.1347 21.5484 41.0967 21.5291C41.1157 21.7035 41.1536 21.8585 41.1726 22.0329C40.0721 21.9554 38.9716 21.8973 37.8522 21.8973C27.1131 21.8973 17.2847 25.9667 9.79011 32.6909C7.7789 30.0167 6.45074 26.7612 6.12818 23.215L22.0471 23.1956L6.05229 21.064C6.07126 20.1726 6.18511 19.3006 6.35587 18.4286L6.37484 18.3511V18.3317L6.39382 18.2542V18.2348L6.41279 18.1573C6.43176 18.0604 6.45074 17.9829 6.46971 17.886C6.48868 17.8279 6.50766 17.7697 6.50766 17.7116C6.52663 17.6535 6.54561 17.5953 6.54561 17.5372L6.56458 17.4597V17.4403L6.58355 17.4015L6.60253 17.3628L6.64047 17.2465L6.65945 17.1496L6.67842 17.1109L6.6974 17.0721C6.71637 17.014 6.73534 16.9558 6.75432 16.8977L6.77329 16.8008C6.79226 16.7039 6.83021 16.6264 6.86816 16.5295C6.92508 16.3551 6.982 16.1807 7.0579 16.0063L7.09584 15.9288L7.13379 15.8513L7.17174 15.7544L7.20969 15.6575C7.93069 13.8553 9.03116 12.1694 10.4542 10.6967L10.5111 10.6386L10.5301 10.6192L10.568 10.5804L10.587 10.5611L10.6439 10.5029C10.6819 10.4642 10.7388 10.4254 10.7767 10.3867L10.7957 10.3673C10.8906 10.2898 10.9855 10.1929 11.0803 10.1154C11.1183 10.0766 11.1752 10.0379 11.2131 9.9991L11.2701 9.94097L11.289 9.92159L11.327 9.88283L11.346 9.86345L11.4029 9.8247L11.4218 9.80532L11.4788 9.76656H11.4977H11.5167L11.5736 9.72781L11.5926 9.70843L11.6495 9.66967L11.6875 9.6503L11.7254 9.63092L11.7634 9.59216H11.7823L11.8013 9.57278L11.8393 9.53403L11.8772 9.49527L11.9152 9.47589L11.9531 9.43714L11.9911 9.39838H12.01H12.029L12.0859 9.35962L12.1239 9.34025L12.1618 9.30149L12.1998 9.28211L12.2377 9.26273L12.2567 9.24336L12.2946 9.2046L12.3326 9.16584L12.3705 9.12709L12.4085 9.08833L12.5223 8.91393L12.5413 8.89455L12.5792 8.87517L12.6172 8.83642L12.6551 8.81704L12.6931 8.77828L12.731 8.7589L12.769 8.73952L12.8259 8.70077L12.8449 8.68139L12.9018 8.64263L12.9208 8.62326L12.9777 8.5845L13.0156 8.56512L13.0726 8.52637H13.0915H13.1105L13.1674 8.48761L13.1864 8.46823H22.2369L14.951 7.53808H14.9699L15.0079 7.5187L15.0458 7.49933H15.0648L15.1027 7.47995H15.1217L15.1976 7.44119L15.2356 7.42181C17.2847 6.58856 19.4857 6.14286 21.6866 6.06535C22.1989 6.04597 22.6922 6.04597 23.2045 6.06535H23.2235H23.2425H23.2614H23.2804H23.2994H23.3184H23.3373H23.3563H23.3753H23.4132H23.4322H23.4512H23.4701C23.5271 6.06535 23.584 6.06535 23.6409 6.06535H23.6599H23.6789H23.6978H23.7168H23.7927H23.8117H23.8306H23.8496H23.8686H23.8876H23.9065H23.9255H23.9445H23.9635H23.9824H24.0014H24.0204H24.0394H24.0583H24.1152C24.305 6.08473 24.5137 6.1041 24.7224 6.12348H24.7604C25.5003 6.22037 26.2593 6.33664 26.9803 6.51104V6.45291C28.9346 6.89861 30.756 7.65435 32.4257 8.68139C32.7293 8.85579 33.0329 9.0302 33.3175 9.22398C33.9057 9.63092 34.4749 10.096 34.9872 10.5998C35.6133 11.1618 36.2015 11.7819 36.7517 12.4407L35.2908 12.6345ZM8.61374 33.776C7.68403 32.5746 6.90611 31.2569 6.27997 29.8617C6.24203 29.7648 6.18511 29.6485 6.14716 29.5516L6.12818 29.5322C6.09024 29.4741 6.07126 29.3966 6.05229 29.3384C5.95742 29.1253 5.88153 28.9121 5.78666 28.6796L5.76768 28.6602C5.74871 28.6021 5.71076 28.5246 5.69179 28.4664V28.4471C5.67282 28.3695 5.63487 28.3114 5.6159 28.2339C5.59692 28.1564 5.55897 28.0982 5.54 28.0207V28.0014C5.52103 27.9432 5.50205 27.8657 5.46411 27.8076L5.44513 27.7688C5.42616 27.6913 5.40718 27.6332 5.38821 27.5557C5.36924 27.4781 5.35026 27.4006 5.31232 27.3231C5.27437 27.1681 5.21745 27.0131 5.1795 26.8774V26.858C5.14155 26.703 5.10361 26.5674 5.06566 26.4124V26.393C5.04668 26.3155 5.02771 26.2573 5.00874 26.1798V26.1604C4.98976 26.0829 4.97079 26.0248 4.97079 25.9473V25.9085C4.95182 25.831 4.93284 25.7729 4.93284 25.6954V25.676C4.91387 25.5985 4.89489 25.521 4.89489 25.4434C4.87592 25.3659 4.87592 25.2884 4.85695 25.2109V25.1915C4.83797 25.114 4.83797 25.0559 4.819 24.9784V24.959C4.80003 24.8815 4.80003 24.804 4.78105 24.7265V24.7071C4.76208 24.6296 4.76208 24.5521 4.74311 24.4745V24.4552C4.72413 24.3777 4.72413 24.3001 4.70516 24.2226C4.68618 24.1451 4.68618 24.0676 4.68618 24.0095V23.9707C4.66721 23.7382 4.62926 23.5056 4.61029 23.2731H4.32568C4.32568 23.8932 4.36363 24.5133 4.42055 25.114C4.43953 25.269 4.4585 25.4434 4.47747 25.5985V25.6178V25.6372V25.6566V25.676V25.6954V25.7147V25.7535V25.7729V25.7923V25.8116V25.8698V25.8891V25.9085V25.9279V25.9667V25.986V26.0442V26.0635V26.0829V26.1023V26.1411V26.1604V26.1798V26.2186H4.51542C4.57234 26.5674 4.62926 26.9356 4.70516 27.2844H4.66721L4.68618 27.3619V27.3813V27.4006V27.42V27.4394L4.70516 27.5169V27.5363V27.5557V27.575V27.5944V27.6138V27.6332L4.72413 27.7301V27.7494L4.74311 27.8076V27.827V27.8463V27.8657V27.8851V27.9045V27.9238C4.78105 28.0982 4.83797 28.2726 4.87592 28.4471V28.5052C5.50205 30.6949 6.48868 32.7102 7.79787 34.493C8.12042 34.2605 8.36708 34.0279 8.61374 33.776ZM4.4585 20.8508H4.42055L4.40158 20.8702C4.43953 20.5408 4.49645 20.2307 4.53439 19.9013V19.9207V19.9401V19.9594V19.9788V19.9982V20.0176V20.037V20.0563V20.0757V20.0951V20.1726V20.192V20.2114V20.2307V20.2501C4.53439 20.2889 4.53439 20.347 4.51542 20.3858V20.4051V20.4439V20.4633V20.4827V20.502V20.5214V20.5408V20.5602V20.5795V20.5989V20.6183V20.6377V20.6571V20.6764V20.6958V20.7152V20.7346V20.7539V20.7733V20.7927V20.8121H4.47747L4.4585 20.8508ZM34.9303 20.9477H35.6513C35.5374 20.9477 35.4046 20.9477 35.2908 20.9477C35.1579 20.9477 35.0441 20.9477 34.9303 20.9477Z" fill="url(#paint0_linear_6_13004)"/>
<path fill-rule="evenodd" clip-rule="evenodd" d="M5.27434 21.8975C5.27434 21.7812 5.27434 21.665 5.27434 21.5487C5.27434 21.5293 5.27434 21.5099 5.27434 21.5099C5.27434 17.3824 6.81121 13.2549 9.90392 10.1156C13.0536 6.87946 17.5503 5.30984 21.9522 5.15481C22.9958 5.11606 24.0393 5.15481 25.0829 5.29046C28.2325 5.65864 31.3252 6.78257 34.0005 8.5266C36.4481 10.2319 38.3265 12.6929 39.3511 15.5415C37.4917 13.0611 35.0061 11.0458 32.1031 9.82493C32.0652 9.80556 32.0273 9.80556 31.9893 9.80556C31.6098 9.74742 31.2493 10.0381 31.1924 10.4257C30.9268 13.0805 31.6288 15.8515 33.3554 18.1381C35.7651 21.3355 39.5598 22.7889 43.2028 22.2851C44.6068 18.8164 44.2084 14.6888 41.7987 11.4915C40.3188 9.53426 38.3075 8.21655 36.1445 7.61583C35.9169 7.49956 35.6892 7.40267 35.4615 7.30578C35.803 7.15076 36.1445 6.95698 36.4481 6.70506C37.7763 5.65864 38.3834 3.99213 38.1747 2.40312C36.7138 1.8024 35.0061 1.9768 33.659 3.02322C33.3744 3.23638 33.1467 3.4883 32.919 3.74021C24.7414 -1.99571 13.452 -1.14307 6.1661 6.29812C-2.04951 14.6888 -2.04951 28.3116 6.1661 36.7024C13.0725 43.7754 23.6219 44.8799 31.6857 40.0548C31.7426 40.016 31.7996 39.9966 31.8565 39.9579C31.9134 39.9191 31.9514 39.8997 32.0083 39.861C34.1144 38.5433 35.9928 36.838 37.5296 34.8614L37.6245 34.9583L37.4917 34.8227C34.0764 38.4076 29.314 40.6361 24.0393 40.6361C13.7935 40.6555 5.46408 32.2842 5.27434 21.8975Z" fill="#114F34"/>
<path fill-rule="evenodd" clip-rule="evenodd" d="M41.1725 23.68C41.2104 23.6607 41.2484 23.6607 41.2863 23.6413C41.0586 23.6413 40.8499 23.6413 40.6222 23.6413C39.5028 23.6413 38.3833 23.68 37.2829 23.7769C30.3575 24.3195 23.9064 26.5674 18.3092 30.1136V30.1523C16.0323 31.5863 13.8883 33.2528 11.915 35.0937C13.6986 36.7409 15.8046 38.0392 18.1194 38.8725C22.73 32.9621 28.8396 28.292 35.8409 25.4822C37.6054 24.7652 39.4269 24.1839 41.3053 23.7188C41.2673 23.68 41.2294 23.68 41.1725 23.68ZM35.6322 29.726C35.4993 29.9004 35.3665 30.0748 35.2337 30.2492C35.3476 30.0748 35.4804 29.9004 35.6322 29.726ZM34.8353 30.7724C34.6645 31.005 34.4937 31.2569 34.323 31.4894C34.4937 31.2375 34.6455 31.005 34.8353 30.7724ZM31.5908 36.5471C31.4959 36.7603 31.42 36.954 31.3441 37.1672C31.42 36.9734 31.4959 36.7603 31.5908 36.5471ZM30.8887 38.4461C30.1867 38.7368 29.4657 38.9887 28.7257 39.1825C31.1923 34.4155 34.5127 30.1717 38.4592 26.6643C39.2372 25.9667 40.0341 25.3078 40.8689 24.6877C40.9638 24.6296 41.0397 24.5521 41.1345 24.4939C41.1915 24.4552 41.2484 24.4164 41.3243 24.3583C41.4381 24.2808 41.552 24.2032 41.6658 24.1257C41.495 25.4241 41.2104 26.6836 40.774 27.8851C40.0151 30.0361 38.8767 31.9739 37.4347 33.6598L37.4157 33.6791C36.2583 35.0162 34.9112 36.1789 33.4312 37.1284C33.4312 37.1284 33.4312 37.1284 33.4122 37.1284C32.9948 37.3804 32.5774 37.6323 32.141 37.8648C31.7425 38.078 31.3062 38.2717 30.8887 38.4461ZM37.6623 27.4394C37.7193 27.3813 37.7572 27.3425 37.8141 27.2844C37.8711 27.2262 37.909 27.1875 37.9659 27.1293C38.0228 27.0712 38.0608 27.0324 38.1177 26.9743C38.1746 26.9162 38.2316 26.8774 38.2695 26.8193C38.3264 26.7612 38.3833 26.7224 38.4213 26.6643L37.6623 27.4394ZM35.0819 27.3425C33.9245 28.5246 32.8241 29.7841 31.7805 31.0825C30.4713 32.749 29.257 34.5124 28.1945 36.3727L28.1375 36.4502V36.4696L28.0617 36.6052L27.9858 36.7603L27.9099 36.8959L27.8909 36.9347L27.834 37.0509L27.815 37.1091L27.7581 37.206L27.7391 37.2447L27.6822 37.361L27.6632 37.3997L27.6063 37.516L27.5873 37.5548L27.5114 37.6904L27.4355 37.826V37.8454L27.4165 37.8648L27.3596 37.9811L27.3407 38.0198V38.0392L27.3027 38.0973V38.1167L27.2458 38.233V38.2524L27.2078 38.3105L27.1889 38.3493L27.1319 38.4849V38.5043L27.056 38.6593V38.6787L26.9802 38.8143V38.8337V38.8531C26.9043 39.0081 26.8284 39.1631 26.7525 39.2988C26.6955 39.4344 26.6197 39.5701 26.5627 39.7057C25.7658 39.822 24.95 39.8801 24.1341 39.8801C22.8818 39.8801 21.6675 39.7445 20.4722 39.4926C20.5291 39.4151 20.586 39.3375 20.6429 39.26C24.2669 34.4155 29.8072 30.3655 35.0819 27.3425Z" fill="#5B8C51"/>
</g>
<defs>
<linearGradient id="paint0_linear_6_13004" x1="13.1732" y1="36.6285" x2="31.0009" y2="8.6937" gradientUnits="userSpaceOnUse">
<stop stop-color="#F78D2D"/>
<stop offset="1" stop-color="#FFF200"/>
</linearGradient>
<clipPath id="clip0_6_13004">
<rect width="44" height="43" fill="white"/>
</clipPath>
</defs>
</svg>
