<svg width="20" height="20" viewBox="0 0 20 20" fill="none" xmlns="http://www.w3.org/2000/svg">
<g clip-path="url(#clip0_16_16)">
<path d="M2.88363 15.397L3.29441 15.8323C6.83324 15.7357 9.14425 16.2738 11.747 15.6502C15.5055 14.7495 17.6268 11.765 18.5194 8.85015C18.7623 7.89312 18.8953 6.92449 18.9542 5.99332C19.1114 3.50832 19.9999 0.0796472 19.9999 0.0796472C19.9999 0.0796472 11.6624 -0.714337 6.56187 2.71144C1.93136 5.82156 2.52003 10.4616 2.88363 12.6629C3.16597 14.3721 2.88363 15.397 2.88363 15.397Z" fill="#9EC63D"/>
<path d="M11.747 15.2985C9.08705 16.0955 7.49787 14.9074 3.29443 15.8322L3.78299 16.3499C8.07732 15.6796 8.8867 16.8814 11.747 16.0244C15.8801 14.786 17.7512 11.8763 18.5194 8.8501C17.5058 11.6077 15.4494 14.1892 11.747 15.2985Z" fill="#93B230"/>
<path d="M5.75627 13.0038C5.69736 13.0038 5.63783 12.9866 5.58556 12.9508C5.44779 12.8564 5.41267 12.6681 5.50713 12.5303C7.164 10.1131 6.52572 5.49656 6.51908 5.45023C6.49541 5.28492 6.61017 5.13163 6.77548 5.10796C6.9408 5.08425 7.094 5.19894 7.11779 5.36425C7.14634 5.56292 7.79685 10.2597 6.00603 12.8724C5.9474 12.9578 5.85267 13.0038 5.75627 13.0038Z" fill="#B7E546"/>
<path d="M9.64493 9.04516C9.59001 9.04516 9.53447 9.03024 9.48454 8.99887C9.34306 8.91012 9.30029 8.72344 9.38904 8.58196C9.83118 7.87708 10.0849 6.7393 10.1227 5.29169C10.1517 4.17942 10.042 3.27977 10.0409 3.27079C10.0203 3.10505 10.138 2.95399 10.3037 2.93341C10.4695 2.91325 10.6205 3.03055 10.6411 3.1963C10.6602 3.35063 11.0966 6.99801 9.90142 8.90337C9.844 8.99493 9.7456 9.04516 9.64493 9.04516Z" fill="#B7E546"/>
<path d="M9.84834 9.0452C9.71967 9.0452 9.60037 8.96242 9.55982 8.83313C9.50986 8.67375 9.59858 8.50403 9.75795 8.4541C12.3901 7.62899 15.194 8.33637 15.3121 8.36684C15.4738 8.40863 15.571 8.57364 15.5292 8.73535C15.4874 8.89703 15.3224 8.99414 15.161 8.95254C15.1336 8.94551 12.4025 8.25895 9.93893 9.03125C9.90877 9.04071 9.8783 9.0452 9.84834 9.0452Z" fill="#B7E546"/>
<path d="M6.35315 12.7576C6.22252 12.7576 6.10209 12.6723 6.06323 12.5407C6.01596 12.3805 6.10745 12.2123 6.26764 12.165C9.90163 11.0923 13.6376 12.1197 13.7949 12.164C13.9556 12.2092 14.0493 12.3763 14.004 12.5371C13.9588 12.6978 13.7919 12.7914 13.6312 12.7463C13.5942 12.7359 9.90159 11.7229 6.43889 12.7452C6.41034 12.7536 6.38147 12.7576 6.35315 12.7576Z" fill="#B7E546"/>
<path d="M0.511332 19.9719L1.23313 19.4306C3.22985 16.7072 8.60852 10.3716 13.4586 4.88501C10.0091 7.72622 4.93246 12.4358 0.139808 18.8699C-0.0958557 19.1863 -0.0262463 19.6347 0.293285 19.866C0.361254 19.9153 0.43516 19.9499 0.511332 19.9719Z" fill="#B7E546"/>
<path d="M17.1027 5.2153C17.0253 5.19803 15.541 4.87471 13.9984 5.07037L13.3581 5.30604L13.1919 5.85334C14.8659 5.34854 16.9497 5.80088 16.9712 5.80565C17.134 5.8419 17.2956 5.73924 17.332 5.57627C17.3684 5.41334 17.2657 5.25166 17.1027 5.2153Z" fill="#B7E546"/>
<path d="M12.8457 5.39571L13.3582 5.30614L13.7068 4.68172C13.7852 4.33247 13.8482 3.93395 13.8953 3.48711C13.9859 2.627 13.9834 1.91024 13.9832 1.88012C13.9823 1.7136 13.8471 1.57922 13.6808 1.57922C13.6803 1.57922 13.6797 1.57922 13.6792 1.57922C13.5122 1.58008 13.3775 1.71618 13.3784 1.88317C13.382 2.58594 13.2882 4.45168 12.8457 5.39571Z" fill="#B7E546"/>
<path d="M16.791 2.31261C16.0574 2.83667 14.8999 3.69792 13.4585 4.88511C6.98334 11.2551 2.13689 17.6969 0.51123 19.972C0.79377 20.054 1.10932 19.9539 1.28791 19.6987C2.77158 17.5783 8.26049 10.0892 16.8694 2.41136C16.929 2.35819 16.856 2.2662 16.791 2.31261Z" fill="#ABD641"/>
</g>
<defs>
<clipPath id="clip0_16_16">
<rect width="20" height="20" fill="white"/>
</clipPath>
</defs>
</svg>
