<svg xmlns="http://www.w3.org/2000/svg" width="50" height="50" fill="none" viewBox="0 0 50 50"><path fill="#5b8c51" d="M45.884 3.119c-.272.007-.53.12-.72.316l-4.477 4.48-1.349-1.35c-.75-.75-1.613-1.164-2.463-1.188-.51-.013-.985.06-1.548.139l-7.303 1.015c-2.687.373-4.051 1.524-5.784 3.139L4.275 26.41l-.021.021c-.776.767-1.113 1.815-1.125 2.847-.011 1.031.314 2.123 1.18 2.863l-.06-.056 13.743 13.743-.056-.06c.74.866 1.832 1.191 2.863 1.18 1.032-.012 2.08-.349 2.847-1.125l.02-.022 1.234-1.324 4.914 1.83a3.96 3.96 0 0 0 3.094-.114c.934-.44 1.748-1.18 2.123-2.205l5.392-16.168c1.606-1.724 2.751-3.09 3.123-5.767l1.015-7.303c.078-.563.152-1.037.139-1.548-.024-.85-.439-1.713-1.189-2.463l-1.349-1.35 4.48-4.48c.682-.663.193-1.818-.758-1.79m-9.066 4.345c.408.011.49.023 1.045.577l1.349 1.349-2.395 2.397a3.1 3.1 0 0 0-1.345-.312 3.15 3.15 0 0 0-3.131 3.131 3.15 3.15 0 0 0 3.13 3.131 3.15 3.15 0 0 0 3.132-3.13c0-.481-.115-.937-.312-1.346l2.396-2.396 1.35 1.349c.553.554.565.637.576 1.045.007.245-.04.64-.118 1.204l-1.015 7.303c-.315 2.264-.993 2.925-2.6 4.649L22.16 44.359c-.27.273-.829.496-1.384.502-.556.006-1.034-.192-1.252-.448l-.056-.06L5.724 30.609l-.06-.056c-.256-.218-.454-.696-.448-1.252.006-.555.229-1.113.502-1.383l.001-.002 17.943-16.72c1.724-1.606 2.385-2.284 4.65-2.599l7.302-1.015c.564-.078.959-.125 1.204-.118m-1.346 6.098c.588 0 1.043.456 1.043 1.044s-.455 1.044-1.043 1.044a1.03 1.03 0 0 1-1.044-1.044 1.03 1.03 0 0 1 1.044-1.044M17.723 25.03c-.935.001-1.396 1.137-.727 1.79l6.26 6.262c.986.984 2.462-.495 1.476-1.478l-6.262-6.258a1.04 1.04 0 0 0-.747-.316m-3.13 3.127c-.94-.003-1.405 1.142-.728 1.794l6.262 6.258c.983 1.05 2.525-.493 1.474-1.475l-6.258-6.257a1.04 1.04 0 0 0-.75-.32m22.405 3.338L33.07 43.27c-.132.36-.547.797-1.05 1.034-.504.237-1.01.23-1.326.112l-4.254-1.592z"/></svg>