<svg xmlns="http://www.w3.org/2000/svg" width="50" height="50" fill="none" viewBox="0 0 50 50"><path fill="#5b8c51" d="M48.59 24.892a5.68 5.68 0 0 0-1.191-6.754l-2.712-2.546a4 4 0 0 1-1.203-2.084l-.849-3.621a5.68 5.68 0 0 0-5.254-4.409l-3.713-.206a4 4 0 0 1-2.262-.824L28.43 2.22a5.68 5.68 0 0 0-6.859 0l-2.977 2.228a4 4 0 0 1-2.262.824l-3.713.206a5.68 5.68 0 0 0-5.254 4.409l-.848 3.62a4 4 0 0 1-1.204 2.085L2.6 18.138a5.68 5.68 0 0 0-1.19 6.755l1.677 3.319c.387.766.52 1.519.418 2.37l-.441 3.693a5.68 5.68 0 0 0 3.43 5.94l3.418 1.464c.788.338 1.374.83 1.844 1.547l2.035 3.113a5.68 5.68 0 0 0 6.445 2.345l3.56-1.075a4 4 0 0 1 2.407 0l3.56 1.075c.558.17 1.123.25 1.68.25 1.89 0 3.682-.939 4.765-2.595l2.036-3.113a4 4 0 0 1 1.843-1.547l3.42-1.464a5.68 5.68 0 0 0 3.428-5.94l-.441-3.693a4 4 0 0 1 .418-2.37zm-3.072 2.614a5.55 5.55 0 0 0-.575 3.261l.441 3.693c.225 1.878-.754 3.573-2.493 4.318l-3.418 1.464a5.56 5.56 0 0 0-2.537 2.128l-2.035 3.113c-1.036 1.583-2.875 2.252-4.686 1.705l-3.56-1.076A5.7 5.7 0 0 0 25 45.859a5.7 5.7 0 0 0-1.656.253l-3.56 1.076c-1.81.547-3.65-.122-4.685-1.706l-2.036-3.112a5.55 5.55 0 0 0-2.536-2.128l-3.419-1.464c-1.739-.745-2.717-2.44-2.493-4.318l.442-3.693a5.55 5.55 0 0 0-.575-3.26l-1.678-3.32c-.853-1.688-.514-3.616.866-4.91l2.711-2.545a5.55 5.55 0 0 0 1.656-2.868l.848-3.62c.432-1.843 1.931-3.1 3.82-3.206l3.713-.206a5.55 5.55 0 0 0 3.111-1.133l2.977-2.228c1.515-1.134 3.472-1.134 4.987 0l2.977 2.228a5.56 5.56 0 0 0 3.111 1.133l3.713.206c1.89.105 3.389 1.363 3.82 3.205l.848 3.621a5.55 5.55 0 0 0 1.656 2.868l2.712 2.545c1.379 1.294 1.719 3.222.865 4.91zM25 9.028C16.193 9.028 9.029 16.193 9.029 25s7.164 15.971 15.97 15.971c8.808 0 15.972-7.165 15.972-15.971S33.807 9.028 25 9.028m0 30.38c-7.945 0-14.409-6.463-14.409-14.408S17.055 10.59 25 10.59 39.409 17.056 39.409 25s-6.464 14.408-14.41 14.408m6.65-21.647h-.012c-.78.003-1.513.31-2.061.864l-6.479 6.543-2.676-2.676a2.9 2.9 0 0 0-2.069-.857c-.781 0-1.516.304-2.069.857a2.93 2.93 0 0 0 0 4.138l4.752 4.752c.57.57 1.32.855 2.07.855s1.498-.285 2.068-.855c1.802-1.802 3.62-3.646 5.378-5.429q1.584-1.608 3.172-3.212a2.927 2.927 0 0 0-.013-4.13 2.9 2.9 0 0 0-2.061-.85m.964 3.88q-1.589 1.606-3.175 3.215c-1.756 1.781-3.572 3.623-5.37 5.42a1.365 1.365 0 0 1-1.928 0l-4.752-4.751a1.365 1.365 0 0 1 .964-2.328c.365 0 .707.142.964.4l3.231 3.23a.78.78 0 0 0 .553.23h.002a.78.78 0 0 0 .553-.232l7.03-7.101c.255-.258.595-.4.958-.401h.005c.363 0 .703.14.96.396.53.527.533 1.39.005 1.922"/></svg>