<svg xmlns="http://www.w3.org/2000/svg" width="50" height="50" fill="none" viewBox="0 0 50 50"><path fill="#5b8c51" fill-rule="evenodd" d="M24.492 28.015c.315.175.698.175 1.013 0l18.75-10.417a1.04 1.04 0 0 0 0-1.82L25.505 5.36a1.04 1.04 0 0 0-1.013 0L5.742 15.777a1.04 1.04 0 0 0 0 1.821zM25 25.913 8.395 16.688l16.604-9.225 16.604 9.225z" clip-rule="evenodd"/><path fill="#5b8c51" fill-rule="evenodd" d="m5.742 25.932 18.75 10.416c.315.175.698.175 1.013 0l18.75-10.416a1.042 1.042 0 0 0-1.013-1.821L25 34.246 6.755 24.111a1.043 1.043 0 0 0-1.013 1.82" clip-rule="evenodd"/><path fill="#5b8c51" fill-rule="evenodd" d="m5.742 34.265 18.75 10.416c.315.175.698.175 1.013 0l18.75-10.416a1.042 1.042 0 0 0-1.013-1.821L25 42.579 6.755 32.444a1.043 1.043 0 0 0-1.013 1.82" clip-rule="evenodd"/></svg>