<svg width="22" height="17" viewBox="0 0 22 17" fill="none" xmlns="http://www.w3.org/2000/svg">
<path d="M22 2.71758V2.37043C22 1.06336 20.9366 0 19.6296 0H2.37043C1.06336 0 0 1.06336 0 2.37043V2.71758V2.72012V14.1067C0 15.4137 1.06336 16.477 2.37043 16.477H19.6297C20.9367 16.477 22 15.4137 22 14.1067V2.72012C22 2.7193 22 2.71844 22 2.71758ZM2.37043 1.28907H19.6296C20.2258 1.28907 20.7109 1.77415 20.7109 2.37043V2.37073L12.0786 8.12558C11.504 8.50865 10.4961 8.50861 9.92156 8.12563L1.28907 2.37069V2.37039C1.28907 1.77415 1.77415 1.28907 2.37043 1.28907ZM19.6297 15.1879H2.37043C1.77415 15.1879 1.28907 14.7029 1.28907 14.1067V3.91994L9.20651 9.19818C9.70942 9.53347 10.3546 9.70105 11 9.70105C11.6453 9.70105 12.2908 9.53342 12.7937 9.19818L20.711 3.91994V14.1067C20.7109 14.7029 20.2259 15.1879 19.6297 15.1879Z" fill="#5B8C51"/>
</svg>
