<svg width="22" height="22" viewBox="0 0 22 22" fill="none" xmlns="http://www.w3.org/2000/svg">
<path d="M14.6728 14.5357C17.0139 10.8622 16.7196 11.3205 16.787 11.2247C17.6394 10.0225 18.0898 8.60759 18.0898 7.13281C18.0898 3.2218 14.9161 0 11 0C7.09663 0 3.91016 3.21544 3.91016 7.13281C3.91016 8.60664 4.37009 10.0586 5.25035 11.277L7.32712 14.5357C5.10671 14.8769 1.33203 15.8938 1.33203 18.1328C1.33203 18.949 1.86476 20.1122 4.40266 21.0186C6.17478 21.6514 8.51774 22 11 22C15.6417 22 20.668 20.6907 20.668 18.1328C20.668 15.8934 16.8977 14.8776 14.6728 14.5357ZM6.32711 10.5679C6.32002 10.5569 6.31262 10.546 6.30489 10.5354C5.5724 9.52768 5.19922 8.3334 5.19922 7.13281C5.19922 3.90938 7.79479 1.28906 11 1.28906C14.1986 1.28906 16.8008 3.91054 16.8008 7.13281C16.8008 8.33534 16.4346 9.48909 15.7418 10.4702C15.6797 10.5521 16.0036 10.0489 11 17.9003L6.32711 10.5679ZM11 20.7109C5.92994 20.7109 2.62109 19.2207 2.62109 18.1328C2.62109 17.4017 4.32128 16.1994 8.08878 15.7308L10.4564 19.446C10.5748 19.6317 10.7797 19.7441 11 19.7441C11.2202 19.7441 11.4252 19.6317 11.5435 19.446L13.9111 15.7308C17.6787 16.1994 19.3789 17.4017 19.3789 18.1328C19.3789 19.2114 16.0998 20.7109 11 20.7109Z" fill="#5B8C51"/>
<path d="M11 3.91016C9.22303 3.91016 7.77734 5.35584 7.77734 7.13281C7.77734 8.90979 9.22303 10.3555 11 10.3555C12.777 10.3555 14.2227 8.90979 14.2227 7.13281C14.2227 5.35584 12.777 3.91016 11 3.91016ZM11 9.06641C9.93382 9.06641 9.06641 8.199 9.06641 7.13281C9.06641 6.06663 9.93382 5.19922 11 5.19922C12.0662 5.19922 12.9336 6.06663 12.9336 7.13281C12.9336 8.199 12.0662 9.06641 11 9.06641Z" fill="#5B8C51"/>
</svg>
