<svg width="20" height="22" viewBox="0 0 20 22" fill="none" xmlns="http://www.w3.org/2000/svg">
<path d="M13.3408 14.5357C15.6818 10.8622 15.3875 11.3205 15.455 11.2247C16.3073 10.0225 16.7578 8.60759 16.7578 7.13281C16.7578 3.2218 13.5841 0 9.66797 0C5.7646 0 2.57812 3.21544 2.57812 7.13281C2.57812 8.60664 3.03806 10.0586 3.91832 11.277L5.99509 14.5357C3.77468 14.8769 0 15.8938 0 18.1328C0 18.949 0.532727 20.1122 3.07063 21.0186C4.84275 21.6514 7.18571 22 9.66797 22C14.3097 22 19.3359 20.6907 19.3359 18.1328C19.3359 15.8934 15.5657 14.8776 13.3408 14.5357ZM4.99507 10.5679C4.98798 10.5569 4.98059 10.546 4.97286 10.5354C4.24037 9.52768 3.86719 8.3334 3.86719 7.13281C3.86719 3.90938 6.46276 1.28906 9.66797 1.28906C12.8665 1.28906 15.4688 3.91054 15.4688 7.13281C15.4688 8.33534 15.1026 9.48909 14.4097 10.4702C14.3477 10.5521 14.6716 10.0489 9.66797 17.9003L4.99507 10.5679ZM9.66797 20.7109C4.59791 20.7109 1.28906 19.2207 1.28906 18.1328C1.28906 17.4017 2.98925 16.1994 6.75675 15.7308L9.12441 19.446C9.24275 19.6317 9.44771 19.7441 9.66793 19.7441C9.88814 19.7441 10.0931 19.6317 10.2114 19.446L12.5791 15.7308C16.3466 16.1994 18.0469 17.4017 18.0469 18.1328C18.0469 19.2114 14.7678 20.7109 9.66797 20.7109Z" fill="#EDCA74"/>
<path d="M9.66797 3.91016C7.891 3.91016 6.44531 5.35584 6.44531 7.13281C6.44531 8.90979 7.891 10.3555 9.66797 10.3555C11.4449 10.3555 12.8906 8.90979 12.8906 7.13281C12.8906 5.35584 11.4449 3.91016 9.66797 3.91016ZM9.66797 9.06641C8.60179 9.06641 7.73438 8.199 7.73438 7.13281C7.73438 6.06663 8.60179 5.19922 9.66797 5.19922C10.7342 5.19922 11.6016 6.06663 11.6016 7.13281C11.6016 8.199 10.7342 9.06641 9.66797 9.06641Z" fill="#EDCA74"/>
</svg>
