<svg width="22" height="22" viewBox="0 0 22 22" fill="none" xmlns="http://www.w3.org/2000/svg">
<g clip-path="url(#clip0_123_796)">
<path d="M10.9999 0C4.93455 0 0 4.93444 0 10.9997C0 17.0653 4.93455 22 10.9999 22C17.0651 22 21.9996 17.0652 21.9996 10.9997C21.9996 4.93444 17.0651 0 10.9999 0ZM10.9999 20.4232C5.80401 20.4232 1.57683 16.1958 1.57683 10.9997C1.57683 5.80391 5.80401 1.57683 10.9999 1.57683C16.1957 1.57683 20.4227 5.80391 20.4227 10.9997C20.4227 16.1958 16.1957 20.4232 10.9999 20.4232Z" fill="#5B8C51"/>
<path d="M16.6563 10.8156H11.487V5.16508C11.487 4.72966 11.1341 4.37666 10.6986 4.37666C10.2632 4.37666 9.91016 4.72966 9.91016 5.16508V11.604C9.91016 12.0394 10.2632 12.3925 10.6986 12.3925H16.6563C17.0918 12.3925 17.4447 12.0394 17.4447 11.604C17.4447 11.1686 17.0917 10.8156 16.6563 10.8156Z" fill="#5B8C51"/>
</g>
<defs>
<clipPath id="clip0_123_796">
<rect width="22" height="22" fill="white"/>
</clipPath>
</defs>
</svg>
