<svg width="16" height="22" viewBox="0 0 16 22" fill="none" xmlns="http://www.w3.org/2000/svg">
<path d="M14.5287 17.0834L14.0699 16.3173C13.2447 14.9568 12.1059 13.3953 10.6122 13.3953C10.3355 13.3953 10.0614 13.451 9.79013 13.5637L8.9884 13.9075C8.91517 13.9379 8.84402 13.9724 8.76871 14.009C8.56352 14.1089 8.33083 14.2219 8.09151 14.2219C7.50112 14.2219 6.81706 13.4536 6.16565 12.0586C5.52635 10.6894 5.56713 9.97159 5.71388 9.61041C5.87582 9.21192 6.25237 9.04155 6.65691 8.88845C6.71317 8.86712 6.76398 8.84777 6.81339 8.82743L7.62525 8.4856C9.74032 7.60111 8.95347 4.51016 8.69549 3.49678L8.47669 2.62549C8.28966 1.9074 7.79373 0 6.14878 0C5.84426 0 5.5194 0.0709457 5.18353 0.210952C4.96315 0.298468 1.93044 1.5364 0.831729 3.7112C-0.48141 6.29988 -0.238607 9.77125 1.5527 14.0267C3.3306 18.2875 5.63609 20.8936 8.40515 21.7726C8.88014 21.9235 9.41695 21.9999 10.0008 21.9999H10.0011C11.9121 21.9999 13.7984 21.1869 13.9515 21.1194C14.6104 20.8403 15.0362 20.4161 15.2172 19.8585C15.524 18.913 15.0093 17.8771 14.5287 17.0834ZM13.8014 19.3991C13.7593 19.5287 13.6131 19.647 13.367 19.7506C13.3629 19.7524 13.358 19.7544 13.3538 19.7563C13.3367 19.7639 11.6293 20.5117 10.0007 20.5116C9.56985 20.5116 9.18456 20.4586 8.85553 20.3541C6.52266 19.6135 4.52785 17.292 2.92527 13.4515C1.31079 9.61577 1.0528 6.5652 2.15955 4.38345C3.01894 2.68244 5.70942 1.60337 5.73581 1.59305C5.74117 1.59087 5.74643 1.58879 5.75169 1.5866C5.90489 1.52231 6.04222 1.48837 6.14878 1.48837C6.47672 1.48837 6.77519 1.997 7.03456 2.99391L7.25236 3.86153C7.72229 5.70711 7.65075 6.86149 7.04915 7.11312L6.24116 7.45346C6.20901 7.46676 6.17141 7.48075 6.12993 7.49653C5.68362 7.6655 4.75488 8.01696 4.33486 9.05009C3.95374 9.98756 4.1115 11.1777 4.81669 12.6885C5.76647 14.7219 6.8376 15.7103 8.09131 15.7103C8.67316 15.7103 9.14021 15.4833 9.41923 15.3478C9.47063 15.3228 9.51657 15.2999 9.56598 15.2794L10.3689 14.9351C10.4518 14.9006 10.5313 14.8838 10.6121 14.8838C10.9986 14.8838 11.6916 15.2665 12.7952 17.0857L13.2537 17.8513C13.8188 18.7843 13.8634 19.208 13.8014 19.3991Z" fill="#5B8C51"/>
</svg>
