<svg width="50" height="50" viewBox="0 0 50 50" fill="none" xmlns="http://www.w3.org/2000/svg">
<path d="M18.3283 13.7785H44.3883L30.1527 24.9574C29.8511 25.194 29.4922 25.3096 29.1666 25.3412C28.8389 25.309 28.4789 25.1935 28.1739 24.9574L18.0005 16.9657C17.8927 16.879 17.7711 16.8129 17.6372 16.7718C18.1161 16.0962 18.3894 15.279 18.375 14.3985C18.3722 14.1968 18.3544 13.989 18.3283 13.7785ZM11.7011 6.58902C11.7339 6.59458 11.7877 6.61514 11.905 6.66958C12.1366 6.77958 12.505 7.06291 12.8655 7.45791C13.5916 8.24902 14.3172 9.44736 14.6939 10.2385C14.7055 10.2618 14.7177 10.2874 14.7289 10.3135C15.7977 12.1474 16.2589 13.5501 16.2727 14.4301C16.2877 15.314 16.0505 15.6946 15.3011 16.1251L13.3677 17.2396C12.1083 17.9646 11.5133 19.264 11.3655 20.4762C11.2172 21.689 11.4355 22.8674 11.975 23.799L16.7472 32.024C17.2877 32.9551 18.2105 33.734 19.3389 34.2124C20.4683 34.6918 21.8966 34.8274 23.1561 34.104L25.0894 32.9918C25.8383 32.5624 26.2911 32.5535 27.0516 33.0057C27.8144 33.459 28.805 34.554 29.8694 36.389C29.8844 36.4162 29.8989 36.439 29.9161 36.4651C30.415 37.1846 31.0944 38.4051 31.4222 39.4274C31.585 39.9351 31.6489 40.394 31.6283 40.6479C31.6055 40.9029 31.6 40.8768 31.5327 40.9168L30.0616 41.7601C26.3661 43.3629 22.9789 43.0012 19.9516 41.4312C16.9188 39.8546 14.2827 37.0074 12.445 33.6646C12.4389 33.6579 12.4361 33.6496 12.4311 33.6451L8.40552 26.7074C8.39885 26.7007 8.39607 26.6946 8.39052 26.6857C6.39885 23.4301 5.23829 19.734 5.38385 16.3335C5.52941 12.9379 6.90718 9.84236 10.1527 7.46069L11.6244 6.62014C11.6583 6.60069 11.6694 6.58569 11.7011 6.58902ZM11.7161 4.5218C11.3266 4.51569 10.9294 4.59736 10.5722 4.80458L9.01607 5.69958C8.98107 5.71958 8.94885 5.74014 8.91718 5.76014C5.1733 8.50014 3.44941 12.3146 3.28107 16.2462C3.11274 20.1762 4.42496 24.2324 6.59274 27.7785L10.605 34.6924L10.5955 34.6718C12.5983 38.3112 15.4683 41.4685 18.9755 43.2874C22.4844 45.109 26.6644 45.5312 30.9222 43.6746C30.9572 43.6596 30.9927 43.6429 31.0244 43.6235L32.5827 42.7285C33.3033 42.3185 33.6655 41.5207 33.7244 40.824C33.785 40.1296 33.6433 39.4535 33.4283 38.7874C33.0072 37.4701 32.2727 36.1907 31.6661 35.3129C30.52 33.3412 29.4133 31.9729 28.1344 31.2079C26.8455 30.4396 25.2983 30.4507 24.0361 31.1762L22.1027 32.2907C21.5316 32.6196 20.8639 32.5812 20.1611 32.284C19.4616 31.9868 18.8139 31.3924 18.5733 30.9757L13.8011 22.7512C13.56 22.3324 13.3627 21.4779 13.4561 20.7246C13.5461 19.9735 13.8511 19.3851 14.4227 19.0557L16.3011 17.9757C16.35 18.2274 16.4922 18.4557 16.6983 18.609L26.8722 26.6024C27.5339 27.1224 28.3177 27.4118 29.1072 27.4574C29.1472 27.4596 29.1883 27.4596 29.2289 27.4574C30.0189 27.4118 30.7989 27.1218 31.4611 26.6024L45.4733 15.5946V33.7801C45.4733 34.0568 45.1577 34.4212 44.5389 34.4212H34.8383C34.2544 34.4179 33.7816 34.889 33.7816 35.4696C33.7816 36.049 34.255 36.5201 34.8383 36.5168H44.5389C46.1244 36.5168 47.5816 35.3707 47.5816 33.7801V14.4196C47.5816 12.8279 46.1244 11.6824 44.5389 11.6824H17.7511C17.4544 10.9407 17.0627 10.1546 16.5694 9.30014C16.1077 8.33902 15.3589 7.06847 14.4216 6.0468C13.9483 5.52902 13.4377 5.07014 12.7994 4.77347V4.77625C12.4822 4.62625 12.105 4.53014 11.7161 4.5218Z" fill="#244F0B"/>
</svg>
