<svg width="49" height="49" viewBox="0 0 49 49" fill="none" xmlns="http://www.w3.org/2000/svg">
<path d="M41.5281 19.6617C41.1887 17.3882 39.8521 15.494 37.9266 14.4517C37.7263 13.8458 37.5094 13.2414 37.2782 12.6519C36.2847 10.1173 34.0774 8.47183 31.5178 8.35775C30.1697 8.29775 28.8859 8.66439 27.8006 9.37584V2.05991C27.8007 0.924109 26.8765 0 25.7407 0H23.2611C22.1253 0 21.2012 0.924109 21.2012 2.05991V9.37575C20.1159 8.66439 18.8322 8.29775 17.484 8.35766C14.9243 8.47174 12.717 10.1172 11.7233 12.6522C11.4893 13.2501 11.2715 13.8564 11.0729 14.4575C9.1372 15.5135 7.79411 17.4404 7.45685 19.7522C6.79028 24.3229 7.02532 28.9281 8.15539 33.4398C9.2955 37.9917 11.2773 42.1723 14.0459 45.8653C15.0087 47.149 16.3052 48.034 17.7953 48.4246C18.3544 48.5712 18.9349 48.644 19.5181 48.644C20.2147 48.644 20.9149 48.5384 21.5872 48.3326C22.4767 48.7658 23.4627 49 24.5007 49C25.5396 49 26.5265 48.7654 27.4165 48.3313C28.0876 48.5379 28.7864 48.6436 29.4827 48.6436C30.078 48.6436 30.6712 48.5674 31.2423 48.4142C32.7422 48.0117 34.0501 47.1072 35.0247 45.7984C37.0162 43.1237 38.6105 40.1635 39.7635 37.0002C39.9448 36.5025 39.6884 35.9522 39.1909 35.7709C38.6931 35.5894 38.1428 35.8459 37.9616 36.3435C36.8724 39.332 35.3668 42.1278 33.4865 44.6531C32.4915 45.9891 31.0437 46.719 29.519 46.7316C30.1206 46.0588 30.6155 45.2531 30.9716 44.3363C32.7211 39.8307 33.6082 35.044 33.6082 30.1091C33.6082 25.5017 32.8336 21.0253 31.3075 16.7852C32.5772 15.6345 34.3366 15.229 36.0231 15.7289C37.9746 16.3074 39.3235 17.8835 39.6312 19.9449C40.038 22.6703 40.104 25.4449 39.827 28.1916C39.7739 28.7184 40.1579 29.1887 40.6849 29.2418C40.7175 29.2451 40.7501 29.2467 40.7822 29.2467C41.2685 29.2467 41.6853 28.8781 41.7351 28.3838C42.0282 25.4789 41.9585 22.5444 41.5281 19.6617ZM23.261 1.91779H25.7406C25.819 1.91779 25.8828 1.98153 25.8828 2.05991V11.3141C25.879 11.3199 25.8751 11.3256 25.8714 11.3313C25.4279 11.2399 24.9699 11.1917 24.5008 11.1917C24.0318 11.1917 23.5736 11.2399 23.1301 11.3313C23.1264 11.3256 23.1226 11.3199 23.1188 11.3141V2.05991C23.1189 1.98153 23.1827 1.91779 23.261 1.91779ZM17.5693 10.2735C19.017 10.2092 20.3643 10.8618 21.2683 12.0198C20.1057 12.6639 19.1322 13.6616 18.4591 14.9318C16.9975 13.855 15.1876 13.4037 13.3838 13.6781C13.4252 13.5691 13.4664 13.4601 13.5088 13.3516C14.2327 11.5053 15.7506 10.3547 17.5693 10.2735ZM15.5803 44.7149C12.9657 41.2272 11.0935 37.2769 10.0157 32.9739C8.94666 28.7062 8.72425 24.3508 9.35455 20.029C9.66041 17.9322 11.0067 16.3275 12.9558 15.7367C14.6634 15.2188 16.3974 15.6094 17.6964 16.7786C16.1687 21.0207 15.3933 25.4994 15.3933 30.1092C15.3933 35.0441 16.2804 39.8308 18.0299 44.3364C18.386 45.2535 18.8811 46.0593 19.4829 46.7323C17.9771 46.7204 16.5537 46.0127 15.5803 44.7149ZM29.184 43.6422C28.36 45.7641 26.5656 47.0822 24.5009 47.0822C22.4362 47.0822 20.6418 45.7641 19.8178 43.6422C18.1545 39.3588 17.3112 34.8056 17.3112 30.1091C17.3112 25.3724 18.1688 20.7829 19.8602 16.4681C20.6722 14.3964 22.4505 13.1095 24.5009 13.1095C26.5513 13.1095 28.3296 14.3964 29.1416 16.4681C30.833 20.783 31.6906 25.3724 31.6906 30.1091C31.6905 34.8056 30.8472 39.3588 29.184 43.6422ZM30.5434 14.9333C29.8702 13.6624 28.8964 12.6642 27.7334 12.0198C28.6375 10.8618 29.985 10.2093 31.4324 10.2735C33.2511 10.3546 34.769 11.5053 35.4928 13.3516C35.5352 13.4597 35.5763 13.5689 35.6177 13.678C33.8056 13.4023 31.9955 13.8547 30.5434 14.9333Z" fill="#5B8C51"/>
<path d="M40.1181 33.5029C40.6477 33.5029 41.0771 33.0735 41.0771 32.5439C41.0771 32.0143 40.6477 31.585 40.1181 31.585C39.5885 31.585 39.1592 32.0143 39.1592 32.5439C39.1592 33.0735 39.5885 33.5029 40.1181 33.5029Z" fill="#5B8C51"/>
</svg>
