<svg width="49" height="49" viewBox="0 0 49 49" fill="none" xmlns="http://www.w3.org/2000/svg">
<path d="M47.5485 15.4459C48.5396 13.0444 48.6254 10.3875 47.7822 7.9064C47.6122 7.40597 47.0684 7.13829 46.5681 7.30816C46.0675 7.47822 45.7999 8.02182 45.9699 8.52225C46.6987 10.6669 46.5655 13.0687 45.6043 15.112C45.4632 15.4119 45.4874 15.7635 45.6682 16.0413C47.9202 19.5023 47.4324 24.1367 44.5083 27.0606C43.4151 28.1538 42.0493 28.9416 40.5585 29.3389C40.1418 29.4499 39.8509 29.8258 39.8479 30.2571C39.8319 32.5867 38.9166 34.7761 37.2707 36.422C34.7459 38.9469 30.9811 39.6972 27.6792 38.333C27.3057 38.1788 26.8759 38.2755 26.6048 38.5746C26.5058 38.6838 26.4067 38.7881 26.3101 38.8846C23.2782 41.9165 18.5479 42.2115 15.1871 39.7032C17.1773 37.5326 19.381 35.1199 21.6294 32.642C22.1647 32.701 23.2978 32.8016 24.8032 32.8016C27.0877 32.8016 30.2278 32.5697 33.4284 31.6086C33.9347 31.4565 34.2218 30.9229 34.0697 30.4167C33.9179 29.9104 33.3844 29.6234 32.878 29.7753C29.1137 30.9058 25.3566 30.9449 23.2584 30.8438C23.6235 30.44 27.6803 25.8833 29.0791 24.2332C29.2168 24.2402 29.389 24.2455 29.5948 24.2455C31.0836 24.2455 34.3179 23.9689 38.8174 22.0484C39.3034 21.8409 39.5294 21.2786 39.3219 20.7925C39.1144 20.3064 38.5521 20.0806 38.066 20.288C34.8069 21.679 32.281 22.1364 30.7186 22.2742C36.1608 15.6848 38.4774 11.9733 38.6836 11.6381C39.2388 10.8311 38.2078 9.76189 37.3778 10.3062C37.1753 10.43 33.4455 12.7309 26.7183 18.2873C26.853 16.7356 27.3095 14.2192 28.7118 10.9338C28.9193 10.4476 28.6934 9.88534 28.2073 9.67786C27.7214 9.47057 27.1588 9.69623 26.9514 10.1824C24.764 15.307 24.7093 18.7876 24.7667 19.9205C23.1166 21.3192 18.5589 25.3773 18.1547 25.7427C18.0526 23.6482 18.0909 19.8964 19.2244 16.1218C19.3765 15.6157 19.0894 15.082 18.5831 14.9299C18.0769 14.7779 17.5433 15.0652 17.3913 15.5713C15.7968 20.881 16.2093 26.0226 16.3579 27.3705C13.8799 29.6189 11.4672 31.8227 9.29655 33.8129C6.78923 30.4525 7.08553 25.7195 10.1154 22.6897C10.212 22.5931 10.3163 22.494 10.4252 22.3952C10.7243 22.1239 10.8211 21.694 10.6668 21.3208C9.30278 18.0191 10.0529 14.2542 12.5779 11.7292C14.2238 10.0833 16.4132 9.16795 18.7427 9.15197C19.174 9.149 19.5499 8.85807 19.661 8.44147C20.0583 6.95052 20.8462 5.58474 21.9393 4.49162C23.3747 3.05617 25.2756 2.1559 27.2916 1.95664C29.2808 1.75959 31.2936 2.24835 32.9585 3.3317C33.2364 3.51249 33.5878 3.53679 33.8877 3.39554C35.9313 2.4343 38.3331 2.30108 40.4775 3.02995C40.9778 3.19992 41.5216 2.93224 41.6916 2.43171C41.8617 1.93119 41.5939 1.38769 41.0935 1.21762C38.6124 0.374481 35.9555 0.460423 33.554 1.45124C31.6185 0.325673 29.3483 -0.17026 27.1033 0.0518669C24.648 0.294474 22.3334 1.39056 20.5858 3.1381C19.4234 4.30041 18.5445 5.71633 18.0181 7.26595C15.4503 7.45114 13.0599 8.54024 11.2245 10.3757C8.30689 13.2933 7.33598 17.5709 8.66463 21.4349C4.9994 25.1956 4.70961 31.0251 7.88044 35.1124C3.47035 39.1632 0.359527 42.0538 0.305359 42.1041C0.115102 42.2811 0.00475611 42.5278 0.000162368 42.7876C-0.00462278 43.0475 0.0965352 43.2981 0.280285 43.4819L5.5182 48.7198C5.69784 48.8994 5.94131 49.0001 6.19492 49.0001C6.20076 49.0001 6.20659 49 6.21243 48.9999C6.47227 48.9952 6.71899 48.885 6.89594 48.6947C6.94628 48.6405 9.83699 45.5296 13.8878 41.1193C15.7127 42.5333 17.8128 43.2964 20.4881 43.2964C23.1519 43.2425 25.6597 42.1923 27.5652 40.3355C31.4295 41.664 35.7067 40.6931 38.6243 37.7756C40.4597 35.9403 41.5488 33.5499 41.734 30.9819C43.2836 30.4555 44.6995 29.5766 45.8619 28.4142C47.6094 26.6667 48.7055 24.352 48.9481 21.8966C49.1698 19.6517 48.6743 17.3815 47.5485 15.4459ZM6.16908 46.6637L2.33627 42.8309C4.7411 40.6018 12.7277 33.2148 20.6503 26.068C26.1801 21.0797 30.794 17.3817 34.0364 14.9634C31.6182 18.2058 27.9202 22.8198 22.9319 28.3496C15.7852 36.2722 8.39819 44.2589 6.16908 46.6637Z" fill="#5B8C51"/>
<path d="M44.5264 5.43066C45.0549 5.43066 45.4834 5.00218 45.4834 4.47363C45.4834 3.94508 45.0549 3.5166 44.5264 3.5166C43.9978 3.5166 43.5693 3.94508 43.5693 4.47363C43.5693 5.00218 43.9978 5.43066 44.5264 5.43066Z" fill="#5B8C51"/>
</svg>
