<svg width="49" height="49" viewBox="0 0 49 49" fill="none" xmlns="http://www.w3.org/2000/svg">
<path d="M40.1094 40.117C41.2726 36.1794 41.8442 32.1087 41.8096 27.9996C41.7772 24.1739 41.2171 20.3844 40.1462 16.7146H40.8993C42.011 16.7146 42.9156 15.8101 42.9156 14.6982V9.81531C42.9156 8.70343 42.011 7.79894 40.8993 7.79894H40.691C37.7339 3.04365 31.4884 0 24.5874 0C17.6865 0 11.441 3.04365 8.48374 7.79885H8.10074C6.98895 7.79885 6.08437 8.70343 6.08437 9.81522V14.6982C6.08437 15.8101 6.98895 16.7146 8.10074 16.7146H8.90216C7.93594 20.5007 7.44307 24.3923 7.43914 28.3024C7.43512 32.2865 7.93689 36.2522 8.93163 40.1071C6.94732 40.5788 5.4668 42.3661 5.4668 44.4927C5.4668 46.978 7.48872 48.9999 9.97403 48.9999H26.3002C26.8297 48.9999 27.2592 48.5706 27.2592 48.041C27.2592 47.5113 26.8298 47.082 26.3002 47.082H9.97394C8.54614 47.082 7.3845 45.9204 7.3845 44.4926C7.3845 43.0648 8.54614 41.9031 9.97394 41.9031H10.1518C10.4525 41.9031 10.7357 41.7622 10.9169 41.5223C11.0981 41.2825 11.1563 40.9715 11.0742 40.6823C9.93049 36.655 9.35263 32.4903 9.35694 28.3043C9.36086 24.3901 9.87383 20.4951 10.8823 16.7146H38.1461C39.2724 20.3816 39.8594 24.1798 39.8918 28.0157C39.9281 32.3096 39.2702 36.5594 37.9366 40.6468C37.8413 40.9388 37.8917 41.2588 38.0721 41.5074C38.2525 41.7559 38.541 41.9031 38.8482 41.9031H39.0261C40.4539 41.9031 41.6156 43.0647 41.6156 44.4926C41.6156 45.9205 40.4539 47.082 39.0261 47.082H34.8987C34.3691 47.082 33.9397 47.5113 33.9397 48.041C33.9397 48.5706 34.369 48.9999 34.8987 48.9999H39.0261C41.5115 48.9999 43.5334 46.978 43.5334 44.4927C43.5334 42.3808 42.0731 40.6034 40.1094 40.117ZM24.5874 1.91779C30.3185 1.91779 35.5155 4.18203 38.3511 7.79885H10.8238C13.6594 4.18203 18.8563 1.91779 24.5874 1.91779ZM8.10083 14.7969C8.04647 14.7969 8.00226 14.7526 8.00226 14.6982V9.81531C8.00226 9.76095 8.04647 9.71674 8.10083 9.71674H40.8993C40.9536 9.71674 40.9978 9.76095 40.9978 9.81531V14.6983C40.9978 14.7526 40.9536 14.7969 40.8993 14.7969H8.10083V14.7969Z" fill="#5B8C51"/>
<path d="M26.3239 30.8581C26.9988 30.8581 27.7423 30.5966 28.5026 30.0808C29.5342 29.3811 30.5285 28.2577 31.3022 26.9173C32.0761 25.577 32.5519 24.1542 32.6421 22.911C32.7499 21.4229 32.2997 20.309 31.3742 19.7747C30.4488 19.2404 29.2591 19.4074 28.0242 20.2449C27.2281 20.785 26.4546 21.5782 25.787 22.528V20.2993C25.787 19.7697 25.3576 19.3403 24.828 19.3403C24.2985 19.3403 23.8691 19.7697 23.8691 20.2993V22.5281C23.2014 21.5783 22.428 20.785 21.6317 20.2449C20.3969 19.4074 19.2073 19.2404 18.2817 19.7747C17.3563 20.309 16.906 21.4229 17.0139 22.911C17.104 24.1542 17.5798 25.577 18.3537 26.9173C19.1275 28.2577 20.1218 29.3811 21.1533 30.0808C21.9138 30.5966 22.657 30.8581 23.3321 30.8581C23.5166 30.8581 23.6957 30.8373 23.869 30.7981V34.8609C23.2013 33.911 22.4279 33.1178 21.6316 32.5777C20.3968 31.7401 19.2072 31.5732 18.2816 32.1075C17.3562 32.6418 16.9059 33.7557 17.0138 35.2438C17.1039 36.487 17.5797 37.9098 18.3536 39.2501C19.1274 40.5904 20.1217 41.7139 21.1532 42.4136C21.9137 42.9293 22.6569 43.1909 23.332 43.1909C23.5165 43.1909 23.6956 43.1701 23.8689 43.1309V43.9633C23.8689 44.4929 24.2982 44.9223 24.8278 44.9223C25.3573 44.9223 25.7868 44.4929 25.7868 43.9633V43.1309C25.96 43.1701 26.139 43.1908 26.3236 43.1908C26.9986 43.1908 27.742 42.9292 28.5023 42.4135C29.5339 41.7138 30.5282 40.5903 31.3019 39.25C32.0758 37.9097 32.5516 36.4869 32.6418 35.2437C32.7496 33.7556 32.2995 32.6417 31.3739 32.1074C30.4486 31.5731 29.2588 31.7401 28.0239 32.5776C27.2278 33.1177 26.4543 33.9108 25.7867 34.8607V30.798C25.9603 30.8373 26.1393 30.8581 26.3239 30.8581ZM26.8855 24.3673C27.5084 23.2887 28.3158 22.3646 29.101 21.8322C29.7365 21.4011 30.219 21.3222 30.4154 21.4358C30.6117 21.5491 30.785 22.0062 30.7294 22.7723C30.6607 23.7186 30.2642 24.8798 29.6415 25.9585C29.0188 27.0372 28.2113 27.9612 27.4262 28.4937C26.7904 28.9249 26.3081 29.0035 26.1116 28.8902C25.6257 28.6098 25.5506 26.6795 26.8855 24.3673ZM23.5447 28.8902C23.3485 29.0035 22.8659 28.9249 22.2301 28.4937C21.445 27.9611 20.6376 27.0371 20.0148 25.9585C19.3921 24.8798 18.9956 23.7186 18.927 22.7723C18.8714 22.0062 19.0446 21.5491 19.2409 21.4357C19.293 21.4055 19.3653 21.389 19.4554 21.389C19.7044 21.389 20.0886 21.5155 20.5553 21.8322C21.3405 22.3646 22.1479 23.2888 22.7708 24.3673C24.1056 26.6795 24.0305 28.6098 23.5447 28.8902ZM23.5447 41.2229C23.3485 41.3364 22.8659 41.2577 22.2301 40.8264C21.445 40.2939 20.6376 39.3698 20.0148 38.2913C19.3921 37.2126 18.9956 36.0513 18.927 35.1051C18.8714 34.339 19.0446 33.8818 19.2409 33.7684C19.293 33.7383 19.3653 33.7217 19.4554 33.7217C19.7044 33.7217 20.0886 33.8483 20.5553 34.1649C21.3405 34.6974 22.1479 35.6215 22.7708 36.7001C24.1056 39.0123 24.0305 40.9425 23.5447 41.2229ZM26.8855 36.7001C27.5084 35.6214 28.3158 34.6974 29.101 34.1649C29.7365 33.734 30.219 33.655 30.4154 33.7685C30.6117 33.8818 30.785 34.339 30.7294 35.1051C30.6607 36.0513 30.2642 37.2126 29.6415 38.2913C29.0188 39.3699 28.2113 40.294 27.4262 40.8264C26.7904 41.2577 26.3081 41.3364 26.1116 41.2229C25.6257 40.9425 25.5506 39.0123 26.8855 36.7001Z" fill="#5B8C51"/>
<path d="M30.5996 48.9999C31.1292 48.9999 31.5585 48.5706 31.5585 48.041C31.5585 47.5114 31.1292 47.082 30.5996 47.082C30.07 47.082 29.6406 47.5114 29.6406 48.041C29.6406 48.5706 30.07 48.9999 30.5996 48.9999Z" fill="#5B8C51"/>
</svg>
