<svg width="49" height="49" viewBox="0 0 49 49" fill="none" xmlns="http://www.w3.org/2000/svg">
<g clip-path="url(#clip0_123_18401)">
<path d="M34.8011 25.0998C34.7166 24.8112 34.4996 24.5755 34.2112 24.47C34.1531 24.4488 33.6813 24.2819 32.9486 24.1747C36.0789 20.8439 35.0454 16.9525 34.8011 16.1926C34.7166 15.9038 34.4996 15.6681 34.2112 15.5626C34.0769 15.5134 31.734 14.6873 29.0646 15.6163C29.2153 14.998 29.3035 14.3182 29.3035 13.5723C29.3035 8.79987 25.6895 6.70225 24.9642 6.32987C24.7004 6.18536 24.38 6.17215 24.1017 6.30154C23.9223 6.3849 19.7062 8.40261 19.7062 13.5723C19.7062 14.3197 19.7947 15.001 19.946 15.6202C17.272 14.685 14.9228 15.5134 14.7882 15.5626C14.4998 15.6681 14.2829 15.9038 14.1984 16.1926C13.954 16.9525 12.9205 20.8439 16.0508 24.1747C15.3181 24.2819 14.8464 24.4488 14.7882 24.47C14.4998 24.5755 14.2828 24.8113 14.1983 25.0999C13.9489 25.8758 12.8764 29.9149 16.2511 33.2895C18.204 35.2425 20.3715 35.7083 21.9954 35.7083C22.5966 35.7083 23.1221 35.6443 23.5358 35.5683V41.8305C23.5358 42.3589 23.9643 42.7875 24.4929 42.7875C25.0214 42.7875 25.4499 42.3589 25.4499 41.8305V35.5659C25.8655 35.6429 26.3962 35.7082 27.0039 35.7082C28.6277 35.7082 30.7955 35.2422 32.7482 33.2894C36.1229 29.9147 35.0505 25.8757 34.8011 25.0998ZM23.5358 32.585C23.5146 33.0194 23.4536 33.3845 23.3953 33.647C22.3724 33.8743 19.8129 34.1444 17.6046 31.936C15.4296 29.7612 15.6576 27.2441 15.8984 26.1458C16.5416 26.006 17.7967 25.8501 19.1863 26.3011C19.2778 26.3354 19.369 26.3677 19.4598 26.3979C20.1957 26.6769 20.9598 27.1325 21.684 27.8566C23.0639 29.2365 23.476 30.7534 23.5358 31.9464V32.585ZM23.5358 23.6778C23.5146 24.1122 23.4536 24.4773 23.3953 24.7397C22.7615 24.8807 21.5378 25.0371 20.1734 24.6113C20.0351 24.558 19.8976 24.5094 19.761 24.4655C19.0473 24.1836 18.3082 23.7322 17.6045 23.0287C15.4296 20.8538 15.6576 18.3368 15.8984 17.2386C16.9204 17.0164 19.487 16.7524 21.684 18.9494C21.698 18.9634 21.7106 18.9774 21.7243 18.9913C21.8082 19.0855 21.8924 19.1755 21.9766 19.262C23.122 20.5551 23.4805 21.9357 23.5358 23.0393V23.6778ZM24.5064 18.876C24.2064 18.6836 23.7742 18.3665 23.3352 17.9082C23.2905 17.8591 23.2452 17.81 23.1987 17.7611C22.3991 16.8729 21.6202 15.5104 21.6202 13.5723C21.6202 10.4527 23.6165 8.83404 24.5 8.27054C25.4461 8.87596 27.3893 10.4946 27.3893 13.5723C27.3893 15.4012 26.703 16.7135 25.9573 17.6004C25.8023 17.7557 25.6572 17.9124 25.5204 18.07C25.1378 18.442 24.7714 18.7072 24.5064 18.876ZM25.4558 23.3676C25.4545 22.2441 25.7451 20.7572 26.9351 19.3609C27.0761 19.2208 27.2178 19.0701 27.3583 18.908C29.5544 16.7479 32.084 17.0118 33.1006 17.2367C33.3415 18.3339 33.571 20.8525 31.3947 23.0287C30.6924 23.7311 29.9547 24.182 29.2422 24.4642C29.1034 24.5088 28.9636 24.5581 28.8229 24.6123C27.4586 25.0375 26.2357 24.8805 25.6044 24.74C25.5335 24.421 25.4585 23.9525 25.4557 23.392C25.4557 23.3839 25.4558 23.3757 25.4558 23.3676ZM31.3947 31.936C29.1861 34.1447 26.6265 33.8742 25.6059 33.6478C25.3834 32.6297 25.1144 30.0575 27.3153 27.8566C28.0195 27.1524 28.7592 26.7009 29.4736 26.419C29.6098 26.3752 29.747 26.3269 29.8849 26.2737C31.2464 25.8488 32.4672 26.0038 33.1006 26.1439C33.3415 27.2412 33.571 29.7598 31.3947 31.936Z" fill="#5B8C51"/>
<path d="M29.6063 0.533162C27.9381 0.179443 26.2201 0 24.5 0C17.9558 0 11.8034 2.54838 7.17592 7.17592C2.54848 11.8034 0 17.9558 0 24.5C0 29.953 1.83463 35.2759 5.17716 39.5619C4.80114 40.1435 4.59873 40.8211 4.59873 41.5303C4.59873 42.5017 4.97704 43.4149 5.6639 44.1018C6.35076 44.7887 7.26406 45.167 8.23545 45.167C9.20683 45.167 10.1201 44.7887 10.807 44.1018C11.4939 43.4149 11.8722 42.5017 11.8722 41.5303C11.8722 40.5589 11.4938 39.6457 10.807 38.9587C10.1201 38.2718 9.20683 37.8935 8.23545 37.8935C7.6597 37.8935 7.10471 38.0273 6.60486 38.2787C3.57566 34.3464 1.91406 29.4824 1.91406 24.5C1.91406 12.0461 12.0461 1.91406 24.5 1.91406C26.0869 1.91406 27.6713 2.07944 29.2093 2.40559C29.7266 2.51517 30.2343 2.1849 30.344 1.66791C30.4537 1.15083 30.1234 0.642838 29.6063 0.533162ZM7.01734 40.3121C7.35316 39.9762 7.79425 39.8083 8.23545 39.8083C8.67664 39.8083 9.11773 39.9762 9.45355 40.3121C9.77894 40.6374 9.9581 41.07 9.9581 41.5302C9.9581 41.9903 9.77894 42.4229 9.45355 42.7483C8.78191 43.4201 7.68898 43.4199 7.01734 42.7483C6.69195 42.423 6.51279 41.9903 6.51279 41.5302C6.51279 41.07 6.69195 40.6375 7.01734 40.3121Z" fill="#5B8C51"/>
<path d="M43.8233 9.43815C44.1993 8.85647 44.4018 8.17889 44.4018 7.46973C44.4018 6.49834 44.0234 5.58504 43.3366 4.89818C42.6497 4.21123 41.7364 3.83301 40.765 3.83301C39.7936 3.83301 38.8804 4.21132 38.1935 4.89818C37.5066 5.58504 37.1283 6.49834 37.1283 7.46973C37.1283 8.44111 37.5066 9.35441 38.1935 10.0413C38.8804 10.7282 39.7936 11.1064 40.765 11.1064C41.3409 11.1064 41.8958 10.9726 42.3957 10.7212C45.4248 14.6536 47.0864 19.5176 47.0864 24.5C47.0864 36.9539 36.9544 47.0859 24.5005 47.0859C23.1607 47.0859 21.8184 46.9678 20.5108 46.7348C19.9908 46.6423 19.4934 46.9886 19.4008 47.5091C19.308 48.0295 19.6547 48.5265 20.175 48.6192C21.5932 48.8719 23.0485 49 24.5005 49C31.0447 49 37.1971 46.4515 41.8247 41.8242C46.4522 37.1968 49.0005 31.0442 49.0005 24.5C49.0005 19.047 47.1659 13.7241 43.8233 9.43815ZM41.9832 8.68784C41.6579 9.01323 41.2253 9.19238 40.7651 9.19238C40.305 9.19238 39.8723 9.01332 39.547 8.68784C38.8753 8.01619 38.8753 6.92336 39.547 6.25162C39.8723 5.92623 40.305 5.74707 40.7651 5.74707C41.2253 5.74707 41.6579 5.92623 41.9832 6.25162C42.3086 6.57691 42.4878 7.00959 42.4878 7.46973C42.4878 7.92987 42.3086 8.36245 41.9832 8.68784Z" fill="#5B8C51"/>
<path d="M16.0911 45.4689L15.7297 46.3551L16.0884 45.4679C15.5981 45.27 15.0406 45.5065 14.8425 45.9965C14.6444 46.4865 14.881 47.0443 15.371 47.2425L15.4006 47.2542C15.5135 47.2973 15.6296 47.3178 15.7439 47.3178C16.1294 47.3178 16.4937 47.0845 16.6396 46.7039C16.8287 46.2102 16.5848 45.6579 16.0911 45.4689Z" fill="#5B8C51"/>
<path d="M33.6706 1.77475L33.6536 1.76796C33.1629 1.57158 32.6059 1.81035 32.4096 2.30112C32.2132 2.79189 32.452 3.34869 32.9427 3.54507L32.9536 3.54947C33.0712 3.59694 33.1924 3.61933 33.3118 3.61933C33.6905 3.61933 34.049 3.39319 34.1995 3.02062C34.3975 2.53052 34.1607 1.97276 33.6706 1.77475Z" fill="#5B8C51"/>
</g>
<defs>
<clipPath id="clip0_123_18401">
<rect width="49" height="49" fill="white"/>
</clipPath>
</defs>
</svg>
