<svg width="49" height="49" viewBox="0 0 49 49" fill="none" xmlns="http://www.w3.org/2000/svg">
<path d="M45.8309 36.3285C47.8442 32.7093 48.9047 28.6227 48.9047 24.4523C48.9047 18.6828 46.857 13.0816 43.139 8.68073C39.465 4.33223 34.373 1.38639 28.8007 0.38585C28.2807 0.292435 27.785 0.638015 27.6918 1.15715C27.5986 1.67648 27.944 2.17288 28.4631 2.2661C39.2009 4.19402 46.9944 13.5246 46.9944 24.4522C46.9944 28.3007 46.0157 32.0713 44.1569 35.4091C43.4601 35.178 42.7324 35.0613 41.9836 35.0613C41.6968 35.0613 41.4121 35.0789 41.1308 35.1136C43.1784 31.9236 44.2648 28.2059 44.2413 24.3299C44.2097 19.0903 42.1517 14.164 38.4466 10.4589C34.7087 6.72101 29.7388 4.66233 24.4524 4.66214C24.4521 4.66214 24.4522 4.66214 24.4519 4.66214C19.166 4.66214 14.1964 6.72063 10.459 10.4579C2.74258 18.1744 2.7422 30.7297 10.4581 38.4456C14.1636 42.1512 19.0902 44.2095 24.3302 44.2413C24.3714 44.2416 24.4121 44.2417 24.4533 44.2417C28.2848 44.2416 31.9577 43.1567 35.1137 41.131C34.9884 42.1456 35.0756 43.1951 35.3853 44.1698C32.0532 46.02 28.2914 46.9943 24.4522 46.9943C12.0225 46.9943 1.91024 36.882 1.91024 24.4523C1.91024 13.5286 9.70061 4.1985 20.4338 2.26753C20.9531 2.17412 21.2983 1.67753 21.2048 1.15839C21.1112 0.639257 20.6143 0.293868 20.0956 0.387474C14.5254 1.38945 9.43526 4.33595 5.76311 8.68379C2.04674 13.0842 0 18.6842 0 24.4522C0 30.9836 2.54352 37.1241 7.16196 41.7426C11.7804 46.3611 17.921 48.9045 24.4523 48.9045C28.5781 48.9045 32.6219 47.8661 36.2125 45.8944C37.453 47.7643 39.5761 49.0001 41.9832 49.0001C45.7997 49.0001 48.9047 45.8951 48.9047 42.0786C48.9047 39.6852 47.6831 37.5718 45.8309 36.3285ZM11.809 37.0947C4.83793 30.1237 4.83822 18.7804 11.8099 11.8087C15.1867 8.43191 19.6765 6.57239 24.4524 6.57248C29.2285 6.57267 33.7186 8.43268 37.0957 11.8098C40.4475 15.1615 42.3238 19.7972 42.3035 24.5319C42.2822 29.4667 40.2314 33.7119 36.9198 37.2662C29.9512 44.0503 18.6882 43.9741 11.809 37.0947ZM41.9832 47.0898C39.2152 47.0898 37.0012 44.7794 36.9732 42.0364C36.9961 39.2928 39.2343 37.0676 41.9832 37.0676C44.7463 37.0676 46.9943 39.3156 46.9943 42.0787C46.9943 44.8418 44.7463 47.0898 41.9832 47.0898Z" fill="#5B8C51"/>
<path d="M44.2458 39.7201C43.8727 39.3472 43.2681 39.3472 42.8949 39.7201L41.983 40.632L41.0711 39.7201C40.698 39.3472 40.0934 39.3472 39.7202 39.7201C39.3472 40.0931 39.3472 40.6979 39.7202 41.071L40.6321 41.9829L39.7203 42.8948C39.3473 43.2678 39.3473 43.8726 39.7203 44.2457C40.0889 44.6141 40.7025 44.6141 41.0712 44.2457L41.983 43.3338L42.8949 44.2457C43.2635 44.6141 43.8771 44.6141 44.2458 44.2457C44.6188 43.8727 44.6188 43.2679 44.2458 42.8948L43.3339 41.9829L44.2458 41.071C44.6189 40.6979 44.6189 40.0931 44.2458 39.7201Z" fill="#5B8C51"/>
<path d="M34.8202 20.8894C34.5299 20.7173 34.1708 20.7111 33.8749 20.8727L33.0658 21.315C33.6446 20.0565 33.9592 18.6689 33.9592 17.2343V14.9448C33.9592 14.6076 33.7814 14.2953 33.4914 14.1232C33.2012 13.9513 32.842 13.9449 32.546 14.1066L28.6791 16.2199C28.6911 16.0594 28.6988 15.8982 28.6988 15.736C28.6988 14.109 28.0905 12.5548 26.9856 11.3602L25.1534 9.37897C24.9726 9.18345 24.7184 9.07227 24.4521 9.07227C24.1858 9.07227 23.9317 9.18345 23.7508 9.37897L21.9186 11.3602C20.8139 12.5548 20.2054 14.1089 20.2054 15.736C20.2054 15.8982 20.2132 16.0594 20.2251 16.2199L16.3582 14.1066C16.0623 13.945 15.7032 13.9513 15.4129 14.1232C15.1229 14.2953 14.945 14.6075 14.945 14.9448V17.2343C14.945 18.6689 15.2597 20.0565 15.8385 21.315L15.0294 20.8727C14.7334 20.7111 14.3742 20.7172 14.0841 20.8894C13.7941 21.0615 13.6162 21.3736 13.6162 21.711V25.4174C13.6162 28.8363 15.4799 31.9788 18.4801 33.6184L23.497 36.3603V38.6375C23.497 39.165 23.9247 39.5927 24.4521 39.5927C24.9796 39.5927 25.4073 39.165 25.4073 38.6375V36.3603L30.4241 33.6184C33.4243 31.9788 35.288 28.8363 35.288 25.4174V21.7109C35.288 21.3736 35.1102 21.0614 34.8202 20.8894ZM29.4957 17.9507L32.0488 16.5553V17.2342C32.0488 20.0791 30.4577 22.7637 27.9604 24.1275L25.4073 25.5229V24.9629C25.4013 22.0686 26.9401 19.3473 29.4957 17.9507ZM23.3212 12.6571L24.4521 11.4342L25.583 12.6571C27.2737 14.4855 27.0068 16.9877 25.5651 18.8342L24.4521 20.0377L23.3392 18.8342C21.8975 16.9877 21.6305 14.4856 23.3212 12.6571ZM16.8555 16.5553L19.4085 17.9507C21.9648 19.3477 23.5018 22.0686 23.497 24.9629V25.5229L20.9439 24.1275C18.4466 22.7637 16.8555 20.0791 16.8555 17.2342V16.5553ZM15.5265 25.4173V23.3215L19.4728 25.4782C21.9302 26.8224 23.497 29.4619 23.497 32.2633V34.1832L19.3962 31.942C17.0093 30.6374 15.5265 28.1374 15.5265 25.4173ZM33.3777 25.4173C33.3777 28.1374 31.895 30.6374 29.5079 31.942L25.4072 34.1832V32.2633C25.4072 29.4619 26.974 26.8224 29.4313 25.4782L33.3776 23.3215V25.4173H33.3777Z" fill="#5B8C51"/>
<path d="M23.9217 1.74855C24.6427 2.22966 25.6026 1.53287 25.3716 0.700438C25.2628 0.308436 24.9055 0.0204527 24.4983 0.00106275C24.0904 -0.0184227 23.7086 0.231736 23.5616 0.611798C23.4037 1.02042 23.5522 1.50746 23.9217 1.74855Z" fill="#5B8C51"/>
</svg>
