<svg width="49" height="49" viewBox="0 0 49 49" fill="none" xmlns="http://www.w3.org/2000/svg">
<path d="M15.9826 11.3178L15.4928 11.9925C14.7085 10.8885 13.4205 10.166 11.9661 10.166H9.06112C8.53265 10.166 8.10409 10.5945 8.10409 11.123V13.3673C8.10409 14.6109 8.63285 15.7637 9.51906 16.5685C9.41666 16.667 9.31665 16.7689 9.22133 16.8768C8.20831 18.0248 7.67285 19.61 7.67285 21.4611C7.67285 24.7524 10.2106 28.7275 13.3619 28.7275C14.1965 28.7275 14.8022 28.4656 15.3336 28.108C15.8651 28.4656 16.4709 28.7275 17.3054 28.7275C20.4568 28.7275 22.9944 24.7523 22.9944 21.4611C22.9944 19.61 22.459 18.0248 21.446 16.8768C20.4597 15.7591 19.0826 15.1435 17.5682 15.1435C17.1325 15.1435 16.704 15.1933 16.2905 15.2871V15.2273C16.2905 14.5238 16.5089 13.8509 16.9223 13.2814L17.5314 12.4421C17.8419 12.0144 17.7468 11.4159 17.3191 11.1054C16.8915 10.795 16.293 10.89 15.9826 11.3178ZM10.0182 13.3673V12.0801H11.9661C13.2953 12.0801 14.3767 13.1614 14.3767 14.4906C14.3767 14.5663 14.3863 14.6394 14.4029 14.7099C14.3861 14.8809 14.3767 15.0535 14.3767 15.2273V15.2871C13.9633 15.1934 13.5349 15.1436 13.0991 15.1436C12.4528 15.1436 11.8319 15.2567 11.2553 15.4721C10.4967 15.0494 10.0182 14.25 10.0182 13.3673ZM21.0804 21.4611C21.0804 24.0122 19.1046 26.8135 17.3054 26.8135C16.8468 26.8135 16.5661 26.6806 15.9405 26.1676C15.7641 26.0229 15.5488 25.9505 15.3336 25.9505C15.1184 25.9505 14.903 26.0229 14.7266 26.1677C14.1012 26.6807 13.8205 26.8136 13.3619 26.8136C11.5626 26.8136 9.58691 24.0123 9.58691 21.4612C9.58691 18.8273 10.9983 17.0577 13.099 17.0577C13.7393 17.0577 14.3508 17.2101 14.8673 17.4982C15.157 17.66 15.51 17.66 15.7999 17.4982C16.3164 17.2101 16.9279 17.0577 17.5683 17.0577C19.669 17.0576 21.0804 18.8272 21.0804 21.4611Z" fill="#5B8C51"/>
<path d="M47.1643 23.4676L45.1539 22.54L43.3616 13.94C43.1477 12.9138 42.2315 12.1688 41.1832 12.1688H30.6671V6.69922C30.6671 6.17065 30.2386 5.74219 29.7101 5.74219H19.6401C19.1116 5.74219 18.6831 6.17065 18.6831 6.69922C18.6831 7.22779 19.1116 7.65625 19.6401 7.65625H28.753V36.1351H16.3299C15.8686 33.1875 13.3124 30.925 10.2374 30.925C7.16233 30.925 4.60619 33.1875 4.1449 36.1351H1.91406V7.65625H11.0268C11.5553 7.65625 11.9838 7.22779 11.9838 6.69922C11.9838 6.17065 11.5553 5.74219 11.0268 5.74219H0.957031C0.428463 5.74219 0 6.17065 0 6.69922V37.0921C0 37.6207 0.428463 38.0492 0.957031 38.0492H4.1449C4.60619 40.9968 7.16233 43.2593 10.2374 43.2593C13.3124 43.2593 15.8686 40.9968 16.3299 38.0492H32.784C33.2453 40.9968 35.8015 43.2593 38.8765 43.2593C41.9516 43.2593 44.5077 40.9968 44.969 38.0492H48.043C48.5714 38.0492 49 37.6207 49 37.0921V26.3363C49 25.1081 48.2794 23.9822 47.1643 23.4676ZM10.2374 41.3452C7.89225 41.3452 5.98441 39.4372 5.98441 37.0921C5.98441 34.747 7.89235 32.8391 10.2374 32.8391C12.5826 32.8391 14.4904 34.747 14.4904 37.0921C14.4904 39.4372 12.5826 41.3452 10.2374 41.3452ZM41.4876 14.3305L43.1382 22.25H35.7464V14.0829H41.1832C41.3297 14.0829 41.4578 14.187 41.4876 14.3305ZM38.8765 41.3452C36.5313 41.3452 34.6235 39.4372 34.6235 37.0921C34.6235 34.747 36.5314 32.8391 38.8765 32.8391C41.2216 32.8391 43.1295 34.747 43.1295 37.0921C43.1295 39.4372 41.2216 41.3452 38.8765 41.3452ZM44.969 36.1351C44.5077 33.1875 41.9516 30.925 38.8765 30.925C35.8015 30.925 33.2453 33.1875 32.784 36.1351H30.667V14.0829H33.8322V23.2071C33.8322 23.7356 34.2608 24.1641 34.7892 24.1641H44.1051L46.3623 25.2055C46.8018 25.4083 47.0858 25.8521 47.0858 26.3362V28.841H44.9853C44.4568 28.841 44.0282 29.2695 44.0282 29.798C44.0282 30.3266 44.4568 30.7551 44.9853 30.7551H47.0859V36.1351H44.969Z" fill="#5B8C51"/>
<path d="M11.1214 36.7256C10.887 36.1087 10.0126 35.9358 9.5604 36.4155C8.95996 37.0009 9.39856 38.0596 10.2371 38.049C10.897 38.0675 11.3923 37.3284 11.1214 36.7256Z" fill="#5B8C51"/>
<path d="M39.761 36.7264C39.5272 36.1084 38.6529 35.9359 38.2 36.4154C37.5998 37.0007 38.038 38.0595 38.8767 38.049C39.5353 38.0676 40.0327 37.329 39.761 36.7264Z" fill="#5B8C51"/>
<path d="M14.4497 7.06531C14.7181 7.76194 15.7301 7.8608 16.1294 7.22992C16.6023 6.53416 15.9717 5.59034 15.1464 5.76098C14.57 5.86032 14.2114 6.53129 14.4497 7.06531Z" fill="#5B8C51"/>
</svg>
