<svg width="58" height="58" viewBox="0 0 58 58" fill="none" xmlns="http://www.w3.org/2000/svg">
<g clip-path="url(#clip0_123_5928)">
<path d="M0.0514069 30.1064C0.0880413 30.0762 0.141249 30.0666 0.18268 30.0805C0.233271 30.0961 0.27965 30.1096 0.323408 30.1224L0.344778 30.1286C0.452648 30.1602 0.545832 30.1872 0.638145 30.2243C2.09657 30.8038 3.24476 31.7965 4.14842 33.2592C4.37157 33.6206 4.54442 33.9962 4.6821 34.3709C4.45633 33.1108 4.40399 32.6198 4.36401 31.2098C4.36212 31.1506 4.36212 31.0904 4.36212 31.0307C4.36212 30.8676 4.36212 30.7135 4.3265 30.5729C4.28376 30.4063 4.19784 30.2401 4.11469 30.0794C4.09128 30.0338 4.06788 29.9883 4.04854 29.9484C4.04186 29.9405 4.0202 29.9273 4.01176 29.926C3.59468 29.8623 3.22585 29.6852 2.88393 29.3847C2.53938 29.0805 2.25605 28.708 2.04162 28.2774C1.27199 26.7341 0.886889 25.0282 0.896627 23.2078C0.897501 23.0322 0.918142 22.8612 0.940821 22.6753C0.951141 22.592 0.961609 22.5068 0.970333 22.4186C0.975275 22.3702 1.00508 22.3271 1.04826 22.3062C1.09085 22.2856 1.14231 22.287 1.18534 22.313C1.21137 22.3293 1.23361 22.3425 1.25382 22.3543C1.29292 22.3776 1.32273 22.3957 1.35093 22.4161C2.00745 22.8867 2.58649 23.4726 3.07219 24.157C3.86479 25.2757 4.32578 26.5406 4.44993 27.9321C4.46228 27.777 4.47479 27.6219 4.48729 27.4668L4.49165 27.4105C4.54035 26.8024 4.59065 26.1735 4.63165 25.5551C4.64197 25.3985 4.67206 25.2462 4.70114 25.0987C4.75725 24.8154 4.81032 24.5478 4.72542 24.2673C4.70608 24.2039 4.6898 24.1401 4.67352 24.0765C4.6334 23.9187 4.43961 23.6758 4.14202 23.4102L4.13083 23.4002C4.02107 23.3071 3.4573 22.7913 3.13747 21.7711C2.81284 20.7345 2.83741 19.6515 2.85529 18.8606L2.85572 18.8395C2.87957 17.7524 2.99703 16.9332 3.23661 16.1829C3.26758 16.087 3.30436 15.9923 3.34332 15.8929C3.36353 15.8411 3.38417 15.7876 3.40539 15.7317C3.42284 15.6843 3.46471 15.6498 3.5137 15.6417L3.53769 15.6395C3.58014 15.6395 3.61983 15.6585 3.64672 15.6914L3.87947 15.975C4.99538 17.3361 5.5436 18.9323 5.50929 20.7196C5.50333 21.0343 5.47978 21.3572 5.43805 21.6905C5.72168 20.7117 6.05431 19.7589 6.43258 18.8423C6.44043 18.8222 6.44552 18.7974 6.4461 18.7763L6.44872 18.651C6.45264 18.4701 6.45671 18.283 6.44901 18.099C6.44784 18.0685 6.42807 18.0137 6.38693 17.9597C6.32849 17.8825 6.26365 17.8071 6.19649 17.7286C6.08208 17.5954 5.96389 17.4579 5.87026 17.3009C5.56875 16.7958 5.42715 16.1992 5.42483 15.423C5.42076 14.5093 5.56162 13.5478 5.86866 12.3969C6.03643 11.769 6.28967 10.9533 6.76128 10.2137C6.79326 10.164 6.82902 10.1172 6.86711 10.0676C6.88427 10.0457 6.90229 10.0223 6.92061 9.99713C6.94736 9.96123 6.98429 9.94029 7.04389 9.94029C7.09143 9.94378 7.13388 9.97082 7.15757 10.0128C7.74955 11.0812 8.04437 12.2226 8.05833 13.5022C8.07025 14.5691 7.90365 15.4871 7.69474 16.2127C8.22638 15.2415 8.8172 14.3031 9.45758 13.4129L9.47226 13.3927C9.4868 13.3734 9.49291 13.3639 9.49189 13.3706C9.53216 13.0826 9.56007 12.8522 9.57941 12.6516C9.57897 12.6485 9.57519 12.6317 9.54524 12.5816C9.50294 12.5095 9.45656 12.4389 9.40728 12.3642C9.30842 12.2138 9.20637 12.0583 9.14095 11.8841C8.94353 11.3584 8.89919 10.7623 9.00575 10.0621C9.23966 8.51255 9.92279 7.11722 11.0937 5.79618C11.2142 5.66054 11.3473 5.54061 11.4882 5.41384L11.5272 5.37851C11.5823 5.32865 11.6388 5.27762 11.696 5.22368C11.7323 5.18908 11.7843 5.17615 11.8348 5.19097C11.8825 5.20609 11.9192 5.24564 11.9306 5.29477L11.9562 5.407C11.9736 5.48144 11.9871 5.54017 11.9972 5.59919C12.1548 6.53978 12.1433 7.54724 11.9618 8.67944C11.7819 9.80233 11.4232 10.7708 10.873 11.6121C11.6981 10.6398 12.5008 9.82341 13.3396 9.09987C13.3434 9.09493 13.3489 9.07995 13.3493 9.07617C13.2838 8.51138 13.423 7.9793 13.7754 7.44955C14.2382 6.75334 14.8812 6.22271 15.6865 5.87265C16.1685 5.66359 16.6678 5.47853 17.1567 5.29724C17.3909 5.21031 17.6251 5.12366 17.8663 5.03077C18.1087 4.93438 18.2123 4.91723 18.2686 4.96927C18.341 5.03673 18.3235 5.0943 18.292 5.19897L18.2818 5.23313C17.9863 6.22867 17.594 7.01604 17.0825 7.64014C16.1433 8.78702 15.045 9.36969 13.7264 9.42115C13.6802 9.42391 13.6436 9.43671 13.6286 9.44834C13.4429 9.58732 13.3063 9.69853 13.1855 9.80873C12.8034 10.1579 12.4272 10.5299 12.0591 10.9217C12.6066 10.5815 13.2758 10.428 14.0294 10.4661C14.4418 10.4869 14.8512 10.5474 15.2471 10.6058L15.2622 10.6082C15.3792 10.6253 15.4957 10.6423 15.6118 10.6587C15.8662 10.6932 16.1227 10.7383 16.3492 10.7778C16.4409 10.7942 16.66 10.8441 16.7104 10.9504C16.7279 10.9867 16.7264 11.0265 16.7067 11.0627C16.6892 11.0943 16.67 11.124 16.6491 11.151C15.9953 11.9993 15.2495 12.5579 14.3691 12.8587C13.2957 13.2274 12.3097 13.197 11.4238 12.7634C11.2883 12.6888 11.1249 12.651 10.9382 12.651C10.7974 12.651 10.6917 12.6732 10.6566 12.6812C10.6042 12.6899 10.5329 12.7193 10.5184 12.7382C9.96742 13.4626 9.4445 14.2363 8.95618 15.0491C9.36876 14.6479 9.9068 14.3773 10.6398 14.2011C11.2822 14.0481 11.939 14.0152 12.574 13.9832L12.7867 13.9725C12.9859 13.9623 13.185 13.9496 13.3902 13.9367L13.7341 13.9155C13.7786 13.9155 13.8209 13.937 13.8468 13.9728C13.8754 14.0113 13.8823 14.0613 13.8654 14.1062C13.8516 14.1437 13.8264 14.2099 13.8135 14.232C13.1438 15.3522 12.3573 16.1271 11.4094 16.601C10.4828 17.0639 9.64556 17.1863 8.80106 16.9844C8.70337 16.9608 8.59012 16.9483 8.47309 16.9483C8.11386 16.9483 7.86338 17.0579 7.81075 17.1594C7.34613 18.1179 6.93151 19.1139 6.57389 20.1298C6.94896 19.6127 7.47348 19.1927 8.13756 18.8785C8.79728 18.5671 9.48419 18.2825 10.16 18.0023C10.4505 17.8822 10.7421 17.7617 11.0325 17.6384C11.0756 17.6195 11.1267 17.6235 11.1669 17.6501C11.2065 17.6764 11.23 17.7203 11.23 17.7675C11.23 17.8582 10.2662 20.5333 8.86633 21.5875C8.29529 22.0175 7.59196 22.4599 6.70502 22.4806C6.43956 22.486 6.16508 22.5235 5.95778 22.7592C5.92609 22.7967 5.88407 22.8259 5.83828 22.8415C5.76748 22.8647 5.748 22.9081 5.71311 23.0558C5.42585 24.2618 5.21665 25.5049 5.08784 26.7672C5.1268 26.6392 5.17202 26.5098 5.22391 26.3788C5.5372 25.5843 6.06448 24.8891 6.88325 24.1909C7.30528 23.8295 7.74722 23.4795 8.17463 23.1409L8.19498 23.125C8.38964 22.9707 8.58387 22.8171 8.77751 22.6615C8.81749 22.6294 8.85645 22.5962 8.90166 22.5576L9.02247 22.454C9.06477 22.4183 9.12772 22.4109 9.17715 22.4356C9.22788 22.4613 9.25827 22.5145 9.25434 22.5714C9.24838 22.6567 9.24359 22.7374 9.23908 22.8149L9.23675 22.8511C9.22716 23.0105 9.21815 23.161 9.20201 23.3096C9.05053 24.7562 8.62035 25.964 7.88693 27.0019C7.43292 27.6434 6.78163 28.4276 5.76603 28.7984C5.51888 28.8892 5.33964 29.0265 5.14759 29.2731C4.96645 29.504 4.93272 29.7149 4.93679 29.9804C4.95409 31.0923 5.03332 32.1955 5.17303 33.2758C5.20574 32.9751 5.27494 32.6656 5.38121 32.344C5.60117 31.6782 5.94396 31.0308 6.42938 30.365C6.84836 29.7885 7.28434 29.2099 7.70593 28.65L7.73399 28.6126C7.90117 28.3909 8.06822 28.169 8.23089 27.9518C8.26142 27.9071 8.30547 27.8911 8.33091 27.8823C8.36696 27.8647 8.41 27.8629 8.44823 27.8792C8.48574 27.8952 8.51452 27.9268 8.52717 27.9654L8.53211 27.9805C8.53909 28.0009 8.54461 28.0189 8.54752 28.037C8.83827 29.7707 8.6599 31.3241 8.00236 32.7863C7.68122 33.5012 7.25047 34.3107 6.49102 34.8931C6.1443 35.159 5.87055 35.532 5.72023 35.9433C5.68839 36.0318 5.68956 36.0702 5.69319 36.085C6.01462 37.4164 6.43447 38.7005 6.94489 39.9158C6.81347 39.2753 6.82248 38.6025 6.97251 37.9054C7.18549 36.9174 7.55155 35.96 7.87806 35.1401L7.9759 34.8945C8.12898 34.5103 8.28308 34.123 8.44227 33.7216C8.46248 33.6703 8.51118 33.6353 8.57616 33.6321C8.62734 33.6321 8.67444 33.6613 8.69886 33.7087L8.75018 33.8052C8.77271 33.8475 8.79379 33.8869 8.81182 33.9276C9.46863 35.4096 9.69048 36.9288 9.47081 38.443C9.3138 39.5258 9.04776 40.3011 8.60814 40.957C8.38063 41.2961 8.16445 41.6737 8.1252 42.1382C8.1159 42.2481 8.12026 42.3239 8.16925 42.4101C8.72372 43.3811 9.34535 44.2974 10.0262 45.1487C10.0235 45.144 10.0211 45.1394 10.0184 45.1347C9.52867 44.2396 9.51384 43.2719 9.56385 42.4431C9.60703 41.7326 9.68844 41.0232 9.7668 40.3373L9.7713 40.2976C9.80285 40.0228 9.83425 39.7482 9.86289 39.473C9.87947 39.317 9.89793 39.161 9.91697 39.0027L9.94212 38.7884C9.94765 38.7411 9.97658 38.7001 10.0182 38.6794C10.0955 38.639 10.2207 38.7014 10.3559 38.8613C11.285 39.9602 11.8615 41.202 12.0697 42.5524C12.2856 43.9525 12.1686 45.1507 11.7115 46.2155C11.6993 46.2438 11.6996 46.3017 11.6997 46.321L11.7243 46.9336C11.7279 46.9777 11.7512 47.0274 11.7704 47.0459C12.6982 47.9393 13.7196 48.7161 14.8157 49.3626C14.2969 48.8936 13.9239 48.2817 13.6821 47.5063C13.4142 46.6468 13.2766 45.7523 13.1433 44.885L13.1317 44.8078C13.0844 44.5031 13.0352 44.1989 12.9849 43.8881L12.928 43.5367C12.9199 43.4856 12.9401 43.4344 12.9798 43.4037C13.0192 43.3723 13.0762 43.3648 13.1215 43.3842L13.1711 43.4047C13.224 43.4264 13.2701 43.4457 13.3136 43.468C15.3858 44.5029 16.7498 46.9168 16.5571 49.2073C16.5268 49.5661 16.5597 49.9031 16.6577 50.2369C16.6668 50.2673 16.6962 50.3003 16.7081 50.3058C17.6923 50.7208 18.6281 51.0237 19.5697 51.2315C19.6181 51.2427 19.6565 51.2773 19.6722 51.324C19.688 51.371 19.6784 51.422 19.6462 51.4604C19.5438 51.5816 19.4547 51.712 19.3814 51.8485C19.3514 51.9044 19.2797 51.933 19.226 51.919C18.4589 51.744 17.7118 51.5174 17.0048 51.2449C16.9477 51.222 16.9041 51.211 16.8632 51.2177C16.7059 51.2387 16.5398 51.2709 16.3553 51.3167C16.3172 51.326 16.2856 51.3436 16.2851 51.342C15.8821 52.1454 15.1895 52.6571 14.1671 52.9061C13.9446 52.9595 13.7152 52.9989 13.4852 53.023C13.2445 53.0485 12.976 53.0614 12.6874 53.0614C12.2876 53.0614 12.0026 53.0367 11.9991 53.0364C11.1128 52.9373 10.356 52.7378 9.68568 52.4265C9.41063 52.299 9.09719 52.1274 8.8563 51.8208C8.81022 51.762 8.81792 51.6773 8.87389 51.628C9.55484 51.0271 10.2481 50.5906 10.9938 50.2934C12.0985 49.8544 13.1048 49.7355 14.0912 49.9252C14.2386 49.9538 14.3825 49.9899 14.5224 50.0313C13.5997 49.4798 12.7162 48.8315 11.8819 48.093C11.8659 48.0785 11.8396 48.0657 11.8191 48.062C11.6826 48.0394 11.5013 48.0114 11.3158 47.9981C11.2986 47.9981 11.2768 48.0064 11.2744 48.0072C10.7716 48.5698 10.124 48.8433 9.29432 48.8433C9.25202 48.8433 9.20957 48.8424 9.16726 48.841C8.2652 48.8119 7.35834 48.564 6.47139 48.1039C5.82679 47.7677 5.15486 47.3762 4.60999 46.7923C4.48918 46.6625 4.38131 46.5157 4.28609 46.3861L4.27679 46.3735C4.23463 46.3164 4.19203 46.2588 4.14827 46.2019C4.12443 46.1713 4.1144 46.1317 4.12065 46.0919C4.12734 46.0535 4.14958 46.0194 4.18752 45.9946C4.19712 45.9894 4.42783 45.8657 4.63848 45.7841C6.04893 45.2391 7.47289 45.1833 8.8313 45.621C9.276 45.7639 9.69454 45.9785 10.102 46.2751C9.3484 45.399 8.6506 44.4387 8.01704 43.4053C8.01021 43.3944 7.99218 43.3649 7.98637 43.3595C7.93098 43.3242 7.87428 43.2908 7.81773 43.2578C7.7164 43.1983 7.61144 43.1368 7.51287 43.0635C7.42972 43.0015 7.40632 42.9999 7.32229 43.054C7.20337 43.1311 7.06511 43.1713 6.9446 43.2028C6.23952 43.3834 5.52877 43.2934 4.74257 42.9243C4.02441 42.5876 3.47227 42.0554 2.98235 41.5305C2.26971 40.765 1.80407 40.0743 1.5168 39.3567C1.45647 39.2061 1.41344 39.0504 1.36867 38.8876C1.3502 38.8193 1.3313 38.7509 1.31124 38.6838C1.28929 38.6117 1.32767 38.5353 1.3989 38.5102L1.45793 38.5057C1.74854 38.5057 4.3409 38.5483 5.85718 40.0195C6.18704 40.3396 6.48273 40.6798 6.7527 41.0523C6.15287 39.782 5.6442 38.4432 5.23424 37.0535L5.22828 37.0332C5.22333 37.0162 5.21592 36.9904 5.21098 36.9834L4.81439 36.4389C4.79956 36.4171 4.79781 36.4171 4.77455 36.4171C4.76423 36.4171 4.7529 36.4178 4.73996 36.4185L4.6552 36.4236C4.36009 36.4419 4.18636 36.4393 4.04346 36.4169C3.47881 36.3278 2.96912 36.0434 2.48545 35.5474C1.35427 34.3873 0.575636 32.9399 0.105196 31.123C0.0547504 30.9284 0.0406475 30.7318 0.025528 30.5233C0.0188408 30.4288 0.0114288 30.3314 0.000671387 30.2308C-0.00383568 30.1826 0.0150623 30.1365 0.0514069 30.1064Z" fill="#0A2803"/>
<path d="M38.4315 51.2303C39.3722 51.0225 40.3079 50.7197 41.2924 50.3047C41.3041 50.2991 41.3334 50.2661 41.3425 50.2365C41.4407 49.902 41.4735 49.565 41.4433 49.2062C41.2505 46.9155 42.6146 44.5018 44.6863 43.467C44.7304 43.4446 44.7763 43.4253 44.8292 43.4036L44.8784 43.3833C44.925 43.3633 44.9819 43.3716 45.0195 43.4019C45.0602 43.4333 45.0805 43.4844 45.0722 43.5358L45.0155 43.887C44.9652 44.1978 44.9159 44.5019 44.8686 44.8064L44.8567 44.886C44.7237 45.7512 44.5862 46.6458 44.3182 47.5053C44.0765 48.2807 43.7034 48.8926 43.1846 49.3614C44.2807 48.7151 45.3022 47.9384 46.2298 47.045C46.2493 47.0263 46.2724 46.9765 46.2757 46.9355L46.3006 46.3225C46.3008 46.3007 46.301 46.2428 46.2887 46.2142C45.8318 45.1497 45.7147 43.9515 45.9306 42.5514C46.1388 41.201 46.7154 39.9592 47.6445 38.8603C47.7532 38.7316 47.8492 38.6665 47.9297 38.6665C47.9493 38.6665 47.9671 38.6704 47.981 38.6777C48.0238 38.6989 48.0527 38.7401 48.0584 38.7876L48.0832 39.0015C48.1024 39.1602 48.1209 39.316 48.1374 39.4722C48.1661 39.7472 48.1975 40.0219 48.229 40.2966L48.2335 40.3363C48.312 41.0223 48.3935 41.7318 48.4365 42.4421C48.4865 43.2707 48.4717 44.2385 47.9819 45.1337C47.9793 45.1382 47.9769 45.143 47.9743 45.1476C48.6551 44.2962 49.2766 43.3801 49.8311 42.4092C49.8801 42.3229 49.8843 42.2471 49.8751 42.1372C49.8357 41.6725 49.6197 41.2948 49.3922 40.956C48.9527 40.3001 48.6867 39.5248 48.5295 38.442C48.3099 36.9278 48.5317 35.4088 49.1885 33.9268C49.2065 33.8859 49.2276 33.8465 49.2502 33.8042L49.3015 33.7074C49.326 33.6602 49.3785 33.6291 49.4339 33.6315C49.4892 33.6344 49.5379 33.6695 49.5579 33.7203C49.7173 34.1222 49.8714 34.5093 50.0244 34.8935L50.1223 35.1391C50.4488 35.9592 50.815 36.9166 51.0278 37.9044C51.1779 38.6015 51.187 39.2743 51.0554 39.9149C51.566 38.6997 51.9857 37.4155 52.3071 36.084C52.3108 36.0692 52.3119 36.0308 52.2801 35.9423C52.1298 35.5309 51.856 35.1578 51.5092 34.8919C50.7499 34.3096 50.3191 33.5001 49.998 32.7851C49.3404 31.3229 49.1621 29.7696 49.4528 28.036C49.4559 28.0178 49.4614 27.9998 49.4679 27.9801L49.4732 27.9644C49.4858 27.9256 49.5146 27.8942 49.5527 27.8778C49.5899 27.8622 49.6367 27.8651 49.6656 27.8794C49.6947 27.89 49.7388 27.9061 49.7674 27.9482C49.932 28.168 50.099 28.3898 50.2662 28.6115L50.2943 28.6489C50.7158 29.2087 51.1518 29.7873 51.5708 30.3637C52.0562 31.0297 52.399 31.6771 52.619 32.3429C52.7251 32.6645 52.7944 32.974 52.8272 33.2746C52.9669 32.1943 53.0461 31.0914 53.0634 29.9792C53.0675 29.7138 53.0337 29.5028 52.8525 29.2718C52.6606 29.0255 52.4813 28.888 52.2342 28.7973C51.2187 28.4263 50.5673 27.6423 50.1133 27.0007C49.3798 25.9629 48.9497 24.7552 48.7982 23.3087C48.782 23.1599 48.7729 23.0093 48.7634 22.8499L48.7611 22.8137C48.7566 22.7362 48.7518 22.6556 48.7457 22.5701C48.7419 22.5134 48.7723 22.4602 48.823 22.4345C48.8722 22.4097 48.9351 22.417 48.9779 22.4532L49.0984 22.5564C49.1437 22.5951 49.1826 22.6282 49.2228 22.6605C49.4163 22.8159 49.6105 22.9697 49.8052 23.124L49.8256 23.14C50.2528 23.4784 50.6948 23.8283 51.1168 24.1897C51.9357 24.8881 52.463 25.5833 52.7763 26.3778C52.828 26.5088 52.8734 26.6383 52.9123 26.7665C52.7835 25.5041 52.5743 24.2608 52.2871 23.0546C52.2522 22.9071 52.2327 22.8637 52.161 22.8402C52.116 22.8249 52.074 22.7956 52.0433 22.7592C51.835 22.5224 51.5606 22.4849 51.2949 22.4795C50.4081 22.4587 49.7048 22.0163 49.1339 21.5863C47.734 20.532 46.7702 17.8571 46.7702 17.7664C46.7702 17.7191 46.7937 17.6751 46.8337 17.6485C46.8731 17.6225 46.9263 17.6188 46.9664 17.6367C47.2581 17.7604 47.5497 17.881 47.8516 18.0058C48.516 18.2813 49.2029 18.566 49.8626 18.8772C50.5266 19.1914 51.0512 19.6115 51.4263 20.1285C51.0688 19.1127 50.6544 18.1169 50.1903 17.1599C50.137 17.0567 49.8863 16.9471 49.527 16.9471C49.4101 16.9471 49.2968 16.9596 49.199 16.9831C48.3546 17.1855 47.5174 17.0628 46.5908 16.5997C45.6428 16.1258 44.8563 15.351 44.1864 14.2303C44.1736 14.2086 44.1484 14.1424 44.1349 14.1054C44.1179 14.06 44.1248 14.01 44.153 13.9721C44.1791 13.936 44.221 13.9145 44.2743 13.9145C44.2748 13.9145 44.2751 13.9145 44.2755 13.9145L44.6102 13.9356C44.8153 13.9485 45.0145 13.9612 45.2136 13.9713L45.4263 13.9821C46.0613 14.0141 46.7181 14.0469 47.3607 14.2C48.0935 14.3762 48.6316 14.6468 49.0442 15.048C48.5558 14.2352 48.0329 13.4618 47.4821 12.7374C47.4673 12.7182 47.3962 12.6888 47.3379 12.6791C47.3088 12.6722 47.203 12.65 47.0622 12.65C46.8756 12.65 46.7122 12.6879 46.5736 12.7641C45.6934 13.1946 44.7048 13.2266 43.6315 12.8579C42.7511 12.5571 42.0054 11.9984 41.3518 11.1504C41.3306 11.1231 41.3114 11.0933 41.294 11.0619C41.2741 11.0257 41.2727 10.9859 41.2902 10.9495C41.3408 10.8434 41.5597 10.7935 41.6519 10.777C41.8781 10.7374 42.1344 10.6924 42.3885 10.6579C42.505 10.6416 42.6216 10.6246 42.7384 10.6073L42.7534 10.605C43.1494 10.5465 43.5588 10.4861 43.9712 10.4653C44.7249 10.4268 45.394 10.5806 45.9417 10.921C45.5734 10.5291 45.1972 10.1572 44.8151 9.80788C44.6943 9.69769 44.5577 9.58662 44.3715 9.4472C44.3571 9.43616 44.3204 9.42322 44.2755 9.4206C42.9556 9.36899 41.8573 8.78632 40.9182 7.63959C40.4066 7.01534 40.0144 6.22798 39.7188 5.23244L39.7086 5.19827C39.6771 5.0936 39.6596 5.03603 39.7322 4.96858C39.7882 4.91653 39.8867 4.93194 40.1429 5.03342C40.3755 5.12282 40.6095 5.20961 40.8498 5.29873C41.3326 5.47769 41.832 5.66275 42.3139 5.87181C43.1193 6.22187 43.7625 6.7525 44.2252 7.44871C44.5776 7.97846 44.7169 8.51069 44.6513 9.073C44.6517 9.07926 44.6573 9.09423 44.6581 9.09597C45.4989 9.82184 46.3025 10.639 47.1277 11.6116C46.5774 10.7703 46.2188 9.80163 46.0388 8.67874C45.8574 7.54669 45.8459 6.53908 46.0035 5.5985C46.0135 5.53962 46.027 5.48074 46.0443 5.40704L46.07 5.2935C46.0817 5.24479 46.1183 5.2054 46.1664 5.19028C46.2145 5.17603 46.2685 5.18868 46.3044 5.22284C46.362 5.27707 46.4184 5.32824 46.4735 5.37796L46.5123 5.413C46.6533 5.54006 46.7865 5.65999 46.907 5.79563C48.078 7.11667 48.761 8.512 48.9949 10.0614C49.1014 10.7617 49.0572 11.3579 48.8597 11.8836C48.7943 12.0577 48.6922 12.2133 48.5906 12.3677C48.5441 12.4382 48.4975 12.509 48.4549 12.5817C48.4235 12.6339 48.4209 12.6474 48.4211 12.6449C48.4404 12.8521 48.4682 13.0829 48.5057 13.36C48.5073 13.3635 48.5125 13.3717 48.5292 13.3938L48.5428 13.4125C49.1831 14.3026 49.7739 15.2411 50.3056 16.2123C50.0965 15.4869 49.9301 14.5687 49.9419 13.5018C49.9561 12.222 50.2508 11.0807 50.8431 10.012C50.8665 9.97042 50.9089 9.94338 50.9684 9.93931C51.0115 9.93931 51.0531 9.96068 51.0803 9.99717C51.098 10.0219 51.1161 10.0451 51.1332 10.0672C51.1715 10.1167 51.2072 10.1635 51.2392 10.2135C51.7108 10.953 51.9638 11.7684 52.1317 12.3963C52.4386 13.5479 52.5796 14.5094 52.5755 15.4225C52.5732 16.1987 52.4317 16.7953 52.1302 17.3002C52.0364 17.4573 51.9184 17.5949 51.7998 17.7333C51.7368 17.8067 51.6721 17.8821 51.6135 17.9595C51.5726 18.0132 51.5528 18.0681 51.5516 18.0986C51.5439 18.2826 51.548 18.4697 51.5519 18.6506L51.5547 18.7756C51.5551 18.7971 51.5601 18.8218 51.5675 18.8407C51.946 19.7579 52.2788 20.7112 52.5626 21.6901C52.5208 21.3568 52.4973 21.034 52.4913 20.7191C52.457 18.9319 53.0052 17.3358 54.1212 15.9746L54.3538 15.6913C54.3807 15.658 54.4205 15.6391 54.4629 15.6391L54.4862 15.6411C54.5359 15.6494 54.5778 15.6839 54.5951 15.7308C54.6163 15.7874 54.6371 15.8407 54.6573 15.8923C54.6963 15.9921 54.733 16.0866 54.7642 16.1827C55.0036 16.9327 55.1211 17.752 55.1449 18.8388L55.1453 18.8601C55.1632 19.6508 55.1878 20.734 54.863 21.7705C54.5433 22.7909 53.9796 23.3066 53.8702 23.3992L53.8586 23.4096C53.561 23.6752 53.3672 23.9182 53.3271 24.0759C53.311 24.1396 53.2945 24.2034 53.2754 24.2665C53.1905 24.5472 53.2435 24.8147 53.3008 25.1036C53.3293 25.2494 53.3589 25.4 53.3693 25.5545C53.4103 26.173 53.4606 26.8019 53.5093 27.41L53.5136 27.4662C53.5261 27.6214 53.5386 27.7765 53.551 27.9316C53.6751 26.54 54.136 25.2751 54.9289 24.1564C55.4144 23.472 55.9933 22.8864 56.6498 22.4156C56.6782 22.3952 56.708 22.377 56.7478 22.3533C56.7672 22.3421 56.7895 22.3288 56.8167 22.3118C56.8577 22.2872 56.9104 22.285 56.9527 22.3056C56.996 22.3267 57.0258 22.3696 57.0307 22.4182C57.0396 22.5061 57.0499 22.5913 57.0608 22.6797C57.0828 22.8607 57.1036 23.0317 57.1044 23.2073C57.1142 25.0277 56.7291 26.7335 55.9594 28.2769C55.745 28.7075 55.4617 29.0799 55.117 29.3843C54.7752 29.6845 54.4064 29.8616 53.9902 29.9253C53.981 29.9269 53.9592 29.9401 53.9559 29.9427C53.9333 29.9879 53.9099 30.0333 53.8865 30.0788C53.8034 30.2394 53.7174 30.4056 53.6747 30.5722C53.6391 30.7131 53.6391 30.867 53.6391 31.0301C53.6391 31.0899 53.6391 31.1501 53.6372 31.2091C53.5972 32.6193 53.5447 33.1103 53.3191 34.3703C53.4568 33.9957 53.6296 33.62 53.8528 33.2586C54.7565 31.796 55.9045 30.8032 57.3625 30.2239C57.4552 30.1865 57.5483 30.1596 57.6561 30.1282L57.6777 30.1218C57.7214 30.109 57.7678 30.0954 57.8174 30.0803C57.8621 30.0656 57.9132 30.0756 57.9497 30.1058C57.986 30.1359 58.005 30.182 58.0002 30.23C57.9895 30.33 57.9821 30.4273 57.9752 30.5222C57.9603 30.7304 57.9462 30.9269 57.8957 31.1214C57.4253 32.9385 56.6466 34.3857 55.5155 35.546C55.0318 36.042 54.5221 36.3264 53.9573 36.4155C53.8148 36.4377 53.6407 36.4405 53.3459 36.4222L53.261 36.4171C53.248 36.4164 53.2367 36.4156 53.2264 36.4156C53.2031 36.4156 53.2012 36.4156 53.1851 36.4395L52.7901 36.9819C52.785 36.989 52.7776 37.0147 52.7725 37.0325L52.7667 37.0519C52.3567 38.4418 51.848 39.7804 51.2482 41.0508C51.5182 40.6782 51.814 40.338 52.1437 40.0181C53.66 38.5469 56.2524 38.5043 56.543 38.5043L56.5792 38.5046L56.602 38.5088C56.6732 38.5341 56.7118 38.6102 56.6898 38.6819C56.6696 38.7495 56.6507 38.8178 56.6291 38.8981C56.5876 39.0488 56.5446 39.2045 56.4843 39.3552C56.197 40.073 55.7313 40.7636 55.0186 41.5291C54.5288 42.0539 53.9766 42.5862 53.2586 42.9227C52.4723 43.292 51.7623 43.3821 51.0562 43.2012C50.9361 43.1697 50.798 43.1297 50.6792 43.0527C50.5946 42.9984 50.5715 43.0002 50.4883 43.0621C50.3898 43.1354 50.2849 43.1969 50.1832 43.2565C50.1269 43.2895 50.0702 43.3228 50.0173 43.3562C50.0089 43.3633 49.9909 43.3929 49.9842 43.4038C49.3506 44.4371 48.6527 45.3975 47.899 46.2735C48.3067 45.9769 48.7252 45.7624 49.1698 45.6194C50.5283 45.1817 51.9523 45.2374 53.3626 45.7827C53.5731 45.8643 53.8038 45.9878 53.8192 45.9966C53.8515 46.0178 53.8737 46.0521 53.8807 46.0915C53.8868 46.1302 53.8768 46.1697 53.8532 46.1999C53.8092 46.2572 53.7666 46.3148 53.7244 46.3719L53.7151 46.3844C53.6199 46.5141 53.512 46.6608 53.3911 46.7907C52.8463 47.3747 52.1746 47.7662 51.5297 48.1023C50.6429 48.5625 49.736 48.8103 48.8341 48.8394C48.7916 48.8409 48.7492 48.8417 48.7069 48.8417C47.8772 48.8417 47.2296 48.5683 46.7303 48.009C46.7242 48.0046 46.7026 47.9964 46.6907 47.9962C46.4999 48.0099 46.3186 48.0376 46.1831 48.0602C46.1618 48.064 46.1355 48.0768 46.119 48.0916C45.285 48.8299 44.4017 49.478 43.479 50.0296C43.6188 49.9882 43.7629 49.9521 43.9103 49.9232C44.8964 49.7336 45.9027 49.8525 47.0077 50.2916C47.7532 50.5887 48.4465 51.0253 49.1273 51.6261C49.1834 51.6754 49.1913 51.7602 49.145 51.8189C48.9042 52.1255 48.5907 52.2972 48.3158 52.4245C47.6453 52.7361 46.8885 52.9355 46.0013 53.0347C45.9987 53.0348 45.7136 53.0595 45.3138 53.0595C45.0252 53.0595 44.7567 53.0466 44.5161 53.0212C44.2861 52.997 44.0567 52.9576 43.8341 52.9041C42.8119 52.6553 42.1191 52.1435 41.7223 51.349C41.7151 51.3422 41.6846 51.3245 41.6459 51.315C41.4614 51.2692 41.2954 51.237 41.1375 51.2159C41.1003 51.2099 41.054 51.2199 40.9955 51.2435C40.2896 51.5155 39.5425 51.7421 38.7765 51.9169C38.7657 51.9195 38.7545 51.9208 38.7433 51.9208C38.6919 51.9208 38.6445 51.8925 38.6195 51.8462C38.5463 51.7102 38.4572 51.5796 38.3547 51.4582C38.3226 51.42 38.313 51.3691 38.3289 51.322C38.344 51.2764 38.3824 51.2418 38.4315 51.2303Z" fill="#0A2803"/>
<path d="M22.1042 32.4687L16.263 26.7749C16.065 26.5819 15.9934 26.2928 16.0791 26.0299C16.1646 25.7666 16.3919 25.5747 16.6658 25.535L24.7376 24.3628L28.348 17.0485C28.4704 16.8003 28.7231 16.6433 28.9997 16.6433C29.2764 16.6433 29.5292 16.8006 29.6515 17.0485L33.2606 24.3628L41.3337 25.535C41.6074 25.5747 41.8349 25.7667 41.9204 26.0299C42.006 26.2928 41.9346 26.5819 41.7365 26.7749L35.8952 32.4687L37.2734 40.5079C37.3202 40.7805 37.2081 41.0562 36.9843 41.2187C36.7607 41.3814 36.4641 41.4029 36.2189 41.2741L28.9994 37.479L21.78 41.2741C21.6738 41.3301 21.5576 41.3575 21.442 41.3575C21.2913 41.3575 21.1414 41.3107 21.0148 41.2187C20.7909 41.0563 20.6786 40.7805 20.7256 40.5079L22.1042 32.4687Z" fill="#0A2803"/>
</g>
<defs>
<clipPath id="clip0_123_5928">
<rect width="58" height="58" fill="white" transform="matrix(-1 0 0 1 58 0)"/>
</clipPath>
</defs>
</svg>
